<svg width="380" height="380" viewBox="0 0 317 318" fill="none" xmlns="http://www.w3.org/2000/svg">
<path d="M158.531 3C195.669 2.99244 231.592 16.2345 259.84 40.3452C288.088 64.4559 306.807 97.8532 312.632 134.532C318.458 171.211 311.005 208.764 291.619 240.44C272.23 272.116 242.177 295.836 206.864 307.335L182.713 233.168C200.369 227.419 215.396 215.558 225.091 199.721C234.785 183.882 238.51 165.106 235.597 146.766C232.685 128.427 223.325 111.728 209.201 99.6729C195.077 87.6176 177.116 80.9964 158.546 81.0003L158.531 3Z" fill="#E89D9D" stroke="white" stroke-width="4.09092" stroke-linejoin="round"/>
<path d="M206.716 307.382C175.422 317.537 141.718 317.54 110.424 307.386C79.1288 297.234 51.845 277.448 32.4727 250.855L95.5177 204.928C105.204 218.223 118.846 228.116 134.493 233.193C150.141 238.269 166.993 238.269 182.639 233.191L206.716 307.382Z" fill="#EBBE97" stroke="white" stroke-width="4.09092" stroke-linejoin="round"/>
<path d="M32.383 250.729C13.0216 224.096 2.58397 192.02 2.56445 159.092L80.5647 159.046C80.5745 175.509 85.7933 191.548 95.4739 204.864L32.383 250.729Z" fill="#85C9A2" stroke="white" stroke-width="4.09092" stroke-linejoin="round"/>
<path d="M2.56445 158.937C2.57784 126.064 12.9759 94.035 32.2744 67.4219L95.4197 113.212C85.7704 126.518 80.5714 142.533 80.5647 158.97L2.56445 158.937Z" fill="#CFA7DE" stroke="white" stroke-width="4.09092" stroke-linejoin="round"/>
<path d="M32.3633 67.2955C41.9509 54.1017 53.5481 42.4932 66.7324 32.8926L112.647 95.9471C106.055 100.747 100.257 106.552 95.4628 113.148L32.3633 67.2955Z" fill="#89B2E8" stroke="white" stroke-width="4.09092" stroke-linejoin="round"/>
<path d="M66.8574 32.7997C80.0513 23.2123 94.667 15.7533 110.172 10.6943L134.367 84.8472C126.614 87.3768 119.306 91.1064 112.709 95.9L66.8574 32.7997Z" fill="#D0D0D0" stroke="white" stroke-width="4.09092" stroke-linejoin="round"/>
<path d="M110.322 10.6461C125.832 5.6027 142.038 3.02265 158.347 3L158.455 81.0003C150.3 81.0116 142.197 82.3016 134.443 84.8232L110.322 10.6461Z" fill="#DEDFE6" stroke="white" stroke-width="4.09092" stroke-linejoin="round"/>
</svg>
