<svg width="1185" height="760" viewBox="0 0 1185 760" fill="none" xmlns="http://www.w3.org/2000/svg">
<path d="M586.727 120C649.999 119.987 711.203 142.548 759.33 183.626C807.456 224.704 839.348 281.604 849.273 344.095C859.198 406.586 846.501 470.567 813.471 524.534C780.439 578.502 729.236 618.913 669.073 638.505L627.925 512.144C658.007 502.349 683.61 482.142 700.126 455.159C716.642 428.174 722.989 396.185 718.027 364.939C713.064 333.693 697.117 305.243 673.055 284.704C648.99 264.166 618.39 252.885 586.752 252.891L586.727 120Z" fill="#EC5555" fill-opacity="0.5" stroke="white" stroke-width="6.96983" stroke-linejoin="round"/>
<path d="M668.818 638.585C615.501 655.886 558.079 655.891 504.762 638.592C451.445 621.295 404.96 587.584 371.955 542.278L479.367 464.03C495.869 486.682 519.112 503.538 545.771 512.187C572.43 520.834 601.141 520.834 627.798 512.183L668.818 638.585Z" fill="#F2994A" fill-opacity="0.5" stroke="white" stroke-width="6.96983" stroke-linejoin="round"/>
<path d="M371.803 542.063C338.816 496.688 321.033 442.039 321 385.939L453.891 385.86C453.908 413.909 462.799 441.236 479.293 463.922L371.803 542.063Z" fill="#27AE60" fill-opacity="0.5" stroke="white" stroke-width="6.96983" stroke-linejoin="round"/>
<path d="M321 385.675C321.023 329.668 338.738 275.098 371.618 229.757L479.2 307.77C462.76 330.441 453.903 357.726 453.891 385.73L321 385.675Z" fill="#BB6BD9" fill-opacity="0.5" stroke="white" stroke-width="6.96983" stroke-linejoin="round"/>
<path d="M371.77 229.542C388.104 207.063 407.863 187.286 430.325 170.929L508.552 278.357C497.321 286.535 487.441 296.424 479.274 307.663L371.77 229.542Z" fill="#2F80ED" fill-opacity="0.5" stroke="white" stroke-width="6.96983" stroke-linejoin="round"/>
<path d="M430.539 170.77C453.018 154.436 477.919 141.728 504.335 133.108L545.556 259.445C532.348 263.755 519.898 270.109 508.658 278.276L430.539 170.77Z" fill="#BDBDBD" fill-opacity="0.5" stroke="white" stroke-width="6.96983" stroke-linejoin="round"/>
<path d="M504.592 133.027C531.017 124.434 558.627 120.039 586.413 120L586.596 252.891C572.703 252.911 558.898 255.108 545.687 259.405L504.592 133.027Z" fill="#D7DBE9" fill-opacity="0.5" stroke="white" stroke-width="6.96983" stroke-linejoin="round"/>
<path d="M927 331C915.594 331 875.037 337.6 861.518 339.801L848 342" stroke="white" stroke-width="5"/>
<path d="M473 714C484.913 714 498.165 668.999 502.583 653.999L507 639" stroke="white" stroke-width="5"/>
<path d="M254.576 493.085C266.38 493.085 306.795 479.841 320.267 475.426L333.739 471.012" stroke="white" stroke-width="5"/>
<path d="M257 283C268.804 283 309.219 296.244 322.691 300.658L336.163 305.073" stroke="white" stroke-width="5"/>
<path d="M334 152C345.804 152 380.825 177.186 390.841 187.288L400.857 197.39" stroke="white" stroke-width="5"/>
<path d="M416 87C427.396 87 456.583 124.607 462.792 136.804L469 149" stroke="white" stroke-width="5"/>
<path d="M552.008 50C540.656 53.2351 546.344 97.4544 547.874 110.91L549.406 124.364" stroke="white" stroke-width="5"/>
<path d="M963.534 332.909V329.034L973.25 313.727H976.591V319.091H974.614L968.489 328.784V328.966H982.295V332.909H963.534ZM974.705 337V331.727L974.795 330.011V313.727H979.409V337H974.705ZM994.074 337.318C992.468 337.318 991.036 337.023 989.778 336.432C988.528 335.841 987.536 335.027 986.801 333.989C986.066 332.951 985.684 331.761 985.653 330.42H990.426C990.479 331.322 990.858 332.053 991.562 332.614C992.267 333.174 993.104 333.455 994.074 333.455C994.847 333.455 995.528 333.284 996.119 332.943C996.718 332.595 997.184 332.114 997.517 331.5C997.858 330.879 998.028 330.167 998.028 329.364C998.028 328.545 997.854 327.826 997.506 327.205C997.165 326.583 996.691 326.098 996.085 325.75C995.479 325.402 994.786 325.223 994.006 325.216C993.324 325.216 992.661 325.356 992.017 325.636C991.381 325.917 990.884 326.299 990.528 326.784L986.153 326L987.256 313.727H1001.48V317.75H991.312L990.71 323.58H990.847C991.256 323.004 991.873 322.527 992.699 322.148C993.525 321.769 994.449 321.58 995.472 321.58C996.873 321.58 998.123 321.909 999.222 322.568C1000.32 323.227 1001.19 324.133 1001.82 325.284C1002.46 326.428 1002.77 327.746 1002.77 329.239C1002.77 330.807 1002.41 332.201 1001.68 333.42C1000.95 334.633 999.93 335.587 998.619 336.284C997.316 336.973 995.801 337.318 994.074 337.318ZM1018.94 332.636V331.409C1018.94 330.477 1019.13 329.621 1019.53 328.841C1019.93 328.053 1020.51 327.424 1021.27 326.955C1022.03 326.477 1022.96 326.239 1024.06 326.239C1025.18 326.239 1026.11 326.473 1026.87 326.943C1027.63 327.413 1028.21 328.042 1028.6 328.83C1028.99 329.61 1029.19 330.47 1029.19 331.409V332.636C1029.19 333.568 1028.99 334.428 1028.6 335.216C1028.2 335.996 1027.62 336.621 1026.86 337.091C1026.09 337.568 1025.16 337.807 1024.06 337.807C1022.95 337.807 1022.01 337.568 1021.26 337.091C1020.5 336.621 1019.92 335.996 1019.53 335.216C1019.13 334.428 1018.94 333.568 1018.94 332.636ZM1022.24 331.409V332.636C1022.24 333.174 1022.37 333.682 1022.63 334.159C1022.9 334.636 1023.37 334.875 1024.06 334.875C1024.75 334.875 1025.22 334.64 1025.47 334.17C1025.73 333.701 1025.86 333.189 1025.86 332.636V331.409C1025.86 330.856 1025.74 330.341 1025.49 329.864C1025.25 329.386 1024.77 329.148 1024.06 329.148C1023.38 329.148 1022.91 329.386 1022.64 329.864C1022.38 330.341 1022.24 330.856 1022.24 331.409ZM1006.99 319.318V318.091C1006.99 317.152 1007.2 316.292 1007.6 315.511C1008 314.723 1008.58 314.095 1009.34 313.625C1010.1 313.155 1011.02 312.92 1012.11 312.92C1013.23 312.92 1014.17 313.155 1014.93 313.625C1015.68 314.095 1016.26 314.723 1016.65 315.511C1017.05 316.292 1017.24 317.152 1017.24 318.091V319.318C1017.24 320.258 1017.04 321.117 1016.64 321.898C1016.25 322.678 1015.67 323.303 1014.9 323.773C1014.15 324.235 1013.21 324.466 1012.11 324.466C1011 324.466 1010.07 324.231 1009.3 323.761C1008.54 323.284 1007.97 322.659 1007.57 321.886C1007.19 321.106 1006.99 320.25 1006.99 319.318ZM1010.32 318.091V319.318C1010.32 319.871 1010.45 320.383 1010.71 320.852C1010.98 321.322 1011.44 321.557 1012.11 321.557C1012.8 321.557 1013.28 321.322 1013.53 320.852C1013.79 320.383 1013.91 319.871 1013.91 319.318V318.091C1013.91 317.538 1013.79 317.023 1013.55 316.545C1013.31 316.068 1012.83 315.83 1012.11 315.83C1011.43 315.83 1010.97 316.072 1010.71 316.557C1010.45 317.042 1010.32 317.553 1010.32 318.091ZM1008.49 337L1024.49 313.727H1027.47L1011.47 337H1008.49ZM1036.57 334.295C1035.82 334.295 1035.18 334.03 1034.64 333.5C1034.11 332.97 1033.85 332.326 1033.85 331.568C1033.85 330.826 1034.11 330.189 1034.64 329.659C1035.18 329.129 1035.82 328.864 1036.57 328.864C1037.3 328.864 1037.94 329.129 1038.48 329.659C1039.03 330.189 1039.3 330.826 1039.3 331.568C1039.3 332.068 1039.17 332.527 1038.91 332.943C1038.66 333.352 1038.34 333.682 1037.93 333.932C1037.52 334.174 1037.07 334.295 1036.57 334.295ZM1036.57 322.875C1035.82 322.875 1035.18 322.61 1034.64 322.08C1034.11 321.549 1033.85 320.905 1033.85 320.148C1033.85 319.405 1034.11 318.773 1034.64 318.25C1035.18 317.72 1035.82 317.455 1036.57 317.455C1037.3 317.455 1037.94 317.72 1038.48 318.25C1039.03 318.773 1039.3 319.405 1039.3 320.148C1039.3 320.655 1039.17 321.117 1038.91 321.534C1038.66 321.943 1038.34 322.269 1037.93 322.511C1037.52 322.754 1037.07 322.875 1036.57 322.875ZM1050.77 337V313.727H1055.69V332.943H1065.67V337H1050.77ZM1068.84 337V319.545H1073.68V337H1068.84ZM1071.27 317.295C1070.55 317.295 1069.93 317.057 1069.42 316.58C1068.91 316.095 1068.66 315.515 1068.66 314.841C1068.66 314.174 1068.91 313.602 1069.42 313.125C1069.93 312.64 1070.55 312.398 1071.27 312.398C1071.99 312.398 1072.6 312.64 1073.11 313.125C1073.63 313.602 1073.88 314.174 1073.88 314.841C1073.88 315.515 1073.63 316.095 1073.11 316.58C1072.6 317.057 1071.99 317.295 1071.27 317.295ZM1089.09 343.545V334.205H1088.94C1088.72 334.689 1088.39 335.17 1087.98 335.648C1087.57 336.117 1087.03 336.508 1086.38 336.818C1085.72 337.129 1084.93 337.284 1083.99 337.284C1082.66 337.284 1081.46 336.943 1080.39 336.261C1079.32 335.572 1078.47 334.561 1077.84 333.227C1077.22 331.886 1076.91 330.242 1076.91 328.295C1076.91 326.295 1077.23 324.633 1077.88 323.307C1078.52 321.973 1079.38 320.977 1080.44 320.318C1081.52 319.652 1082.7 319.318 1083.98 319.318C1084.95 319.318 1085.77 319.485 1086.42 319.818C1087.08 320.144 1087.61 320.553 1088.01 321.045C1088.42 321.53 1088.73 322.008 1088.94 322.477H1089.15V319.545H1093.92V343.545H1089.09ZM1085.52 333.432C1086.3 333.432 1086.96 333.22 1087.5 332.795C1088.05 332.364 1088.46 331.761 1088.75 330.989C1089.05 330.216 1089.19 329.311 1089.19 328.273C1089.19 327.235 1089.05 326.333 1088.76 325.568C1088.47 324.803 1088.06 324.212 1087.51 323.795C1086.97 323.379 1086.3 323.17 1085.52 323.17C1084.73 323.17 1084.06 323.386 1083.51 323.818C1082.97 324.25 1082.55 324.848 1082.27 325.614C1081.99 326.379 1081.85 327.265 1081.85 328.273C1081.85 329.288 1081.99 330.186 1082.27 330.966C1082.56 331.739 1082.97 332.345 1083.51 332.784C1084.06 333.216 1084.73 333.432 1085.52 333.432ZM1109 329.568V319.545H1113.84V337H1109.19V333.83H1109.01C1108.62 334.852 1107.96 335.674 1107.05 336.295C1106.14 336.917 1105.03 337.227 1103.72 337.227C1102.55 337.227 1101.52 336.962 1100.64 336.432C1099.75 335.902 1099.06 335.148 1098.56 334.17C1098.06 333.193 1097.81 332.023 1097.81 330.659V319.545H1102.65V329.795C1102.66 330.826 1102.93 331.64 1103.48 332.239C1104.02 332.837 1104.75 333.136 1105.67 333.136C1106.25 333.136 1106.8 333.004 1107.31 332.739C1107.81 332.466 1108.22 332.064 1108.53 331.534C1108.85 331.004 1109.01 330.348 1109 329.568ZM1117.71 337V319.545H1122.55V337H1117.71ZM1120.14 317.295C1119.43 317.295 1118.81 317.057 1118.29 316.58C1117.79 316.095 1117.53 315.515 1117.53 314.841C1117.53 314.174 1117.79 313.602 1118.29 313.125C1118.81 312.64 1119.43 312.398 1120.14 312.398C1120.86 312.398 1121.48 312.64 1121.99 313.125C1122.5 313.602 1122.76 314.174 1122.76 314.841C1122.76 315.515 1122.5 316.095 1121.99 316.58C1121.48 317.057 1120.86 317.295 1120.14 317.295ZM1132.86 337.284C1131.54 337.284 1130.34 336.943 1129.26 336.261C1128.19 335.572 1127.34 334.561 1126.72 333.227C1126.09 331.886 1125.78 330.242 1125.78 328.295C1125.78 326.295 1126.11 324.633 1126.75 323.307C1127.39 321.973 1128.25 320.977 1129.32 320.318C1130.39 319.652 1131.57 319.318 1132.85 319.318C1133.83 319.318 1134.64 319.485 1135.3 319.818C1135.95 320.144 1136.48 320.553 1136.89 321.045C1137.3 321.53 1137.61 322.008 1137.82 322.477H1137.97V313.727H1142.8V337H1138.02V334.205H1137.82C1137.59 334.689 1137.27 335.17 1136.85 335.648C1136.44 336.117 1135.91 336.508 1135.25 336.818C1134.6 337.129 1133.8 337.284 1132.86 337.284ZM1134.4 333.432C1135.18 333.432 1135.84 333.22 1136.38 332.795C1136.92 332.364 1137.34 331.761 1137.62 330.989C1137.92 330.216 1138.07 329.311 1138.07 328.273C1138.07 327.235 1137.92 326.333 1137.64 325.568C1137.35 324.803 1136.93 324.212 1136.39 323.795C1135.84 323.379 1135.18 323.17 1134.4 323.17C1133.6 323.17 1132.93 323.386 1132.39 323.818C1131.84 324.25 1131.43 324.848 1131.15 325.614C1130.87 326.379 1130.73 327.265 1130.73 328.273C1130.73 329.288 1130.87 330.186 1131.15 330.966C1131.44 331.739 1131.85 332.345 1132.39 332.784C1132.93 333.216 1133.6 333.432 1134.4 333.432ZM1146.78 337V319.545H1151.62V337H1146.78ZM1149.21 317.295C1148.49 317.295 1147.87 317.057 1147.36 316.58C1146.85 316.095 1146.59 315.515 1146.59 314.841C1146.59 314.174 1146.85 313.602 1147.36 313.125C1147.87 312.64 1148.49 312.398 1149.21 312.398C1149.93 312.398 1150.54 312.64 1151.05 313.125C1151.56 313.602 1151.82 314.174 1151.82 314.841C1151.82 315.515 1151.56 316.095 1151.05 316.58C1150.54 317.057 1149.93 317.295 1149.21 317.295ZM1164.78 319.545V323.182H1154.27V319.545H1164.78ZM1156.65 315.364H1161.49V331.636C1161.49 332.083 1161.56 332.432 1161.7 332.682C1161.84 332.924 1162.02 333.095 1162.27 333.193C1162.52 333.292 1162.8 333.341 1163.13 333.341C1163.36 333.341 1163.59 333.322 1163.81 333.284C1164.04 333.239 1164.21 333.205 1164.34 333.182L1165.1 336.784C1164.85 336.86 1164.51 336.947 1164.07 337.045C1163.63 337.152 1163.1 337.216 1162.47 337.239C1161.3 337.284 1160.28 337.129 1159.4 336.773C1158.53 336.417 1157.85 335.864 1157.37 335.114C1156.88 334.364 1156.65 333.417 1156.65 332.273V315.364ZM1170.92 343.545C1170.31 343.545 1169.73 343.496 1169.19 343.398C1168.66 343.307 1168.22 343.189 1167.88 343.045L1168.97 339.432C1169.53 339.606 1170.05 339.701 1170.5 339.716C1170.96 339.731 1171.36 339.625 1171.69 339.398C1172.03 339.17 1172.31 338.784 1172.52 338.239L1172.81 337.5L1166.55 319.545H1171.64L1175.25 332.364H1175.43L1179.08 319.545H1184.2L1177.42 338.886C1177.09 339.826 1176.65 340.644 1176.09 341.341C1175.54 342.045 1174.84 342.587 1173.99 342.966C1173.14 343.352 1172.12 343.545 1170.92 343.545Z" fill="white"/>
<path d="M564.355 31.3182C562.749 31.3182 561.317 31.0227 560.06 30.4318C558.81 29.8409 557.817 29.0265 557.082 27.9886C556.348 26.9508 555.965 25.7614 555.935 24.4205H560.707C560.76 25.322 561.139 26.053 561.844 26.6136C562.548 27.1742 563.385 27.4545 564.355 27.4545C565.128 27.4545 565.81 27.2841 566.401 26.9432C566.999 26.5947 567.465 26.1136 567.798 25.5C568.139 24.8788 568.31 24.1667 568.31 23.3636C568.31 22.5455 568.135 21.8258 567.787 21.2045C567.446 20.5833 566.973 20.0985 566.366 19.75C565.76 19.4015 565.067 19.2235 564.287 19.2159C563.605 19.2159 562.942 19.3561 562.298 19.6364C561.662 19.9167 561.166 20.2992 560.81 20.7841L556.435 20L557.537 7.72727H571.764V11.75H561.594L560.991 17.5795H561.128C561.537 17.0038 562.154 16.5265 562.98 16.1477C563.806 15.7689 564.73 15.5795 565.753 15.5795C567.154 15.5795 568.404 15.9091 569.503 16.5682C570.601 17.2273 571.469 18.1326 572.105 19.2841C572.741 20.428 573.056 21.7462 573.048 23.2386C573.056 24.8068 572.692 26.2008 571.957 27.4205C571.23 28.6326 570.211 29.5871 568.901 30.2841C567.598 30.9735 566.082 31.3182 564.355 31.3182ZM589.219 26.6364V25.4091C589.219 24.4773 589.416 23.6212 589.81 22.8409C590.211 22.053 590.791 21.4242 591.548 20.9545C592.313 20.4773 593.245 20.2386 594.344 20.2386C595.457 20.2386 596.393 20.4735 597.151 20.9432C597.916 21.4129 598.491 22.0417 598.878 22.8295C599.272 23.6098 599.469 24.4697 599.469 25.4091V26.6364C599.469 27.5682 599.272 28.428 598.878 29.2159C598.484 29.9962 597.904 30.6212 597.139 31.0909C596.374 31.5682 595.442 31.8068 594.344 31.8068C593.23 31.8068 592.295 31.5682 591.537 31.0909C590.779 30.6212 590.204 29.9962 589.81 29.2159C589.416 28.428 589.219 27.5682 589.219 26.6364ZM592.526 25.4091V26.6364C592.526 27.1742 592.654 27.6818 592.912 28.1591C593.177 28.6364 593.654 28.875 594.344 28.875C595.033 28.875 595.503 28.6402 595.753 28.1705C596.01 27.7008 596.139 27.1894 596.139 26.6364V25.4091C596.139 24.8561 596.018 24.3409 595.776 23.8636C595.533 23.3864 595.056 23.1477 594.344 23.1477C593.662 23.1477 593.188 23.3864 592.923 23.8636C592.658 24.3409 592.526 24.8561 592.526 25.4091ZM577.276 13.3182V12.0909C577.276 11.1515 577.476 10.2917 577.878 9.51136C578.279 8.72348 578.859 8.0947 579.616 7.625C580.382 7.1553 581.306 6.92045 582.389 6.92045C583.51 6.92045 584.45 7.1553 585.207 7.625C585.965 8.0947 586.541 8.72348 586.935 9.51136C587.329 10.2917 587.526 11.1515 587.526 12.0909V13.3182C587.526 14.2576 587.325 15.1174 586.923 15.8977C586.529 16.678 585.95 17.303 585.185 17.7727C584.427 18.2348 583.495 18.4659 582.389 18.4659C581.283 18.4659 580.348 18.2311 579.582 17.7614C578.825 17.2841 578.249 16.6591 577.855 15.8864C577.469 15.1061 577.276 14.25 577.276 13.3182ZM580.605 12.0909V13.3182C580.605 13.8712 580.734 14.3826 580.991 14.8523C581.257 15.322 581.723 15.5568 582.389 15.5568C583.086 15.5568 583.56 15.322 583.81 14.8523C584.067 14.3826 584.196 13.8712 584.196 13.3182V12.0909C584.196 11.5379 584.075 11.0227 583.832 10.5455C583.59 10.0682 583.109 9.82954 582.389 9.82954C581.715 9.82954 581.249 10.072 580.991 10.5568C580.734 11.0417 580.605 11.553 580.605 12.0909ZM578.776 31L594.776 7.72727H597.753L581.753 31H578.776ZM606.855 28.2955C606.105 28.2955 605.461 28.0303 604.923 27.5C604.393 26.9697 604.128 26.3258 604.128 25.5682C604.128 24.8258 604.393 24.1894 604.923 23.6591C605.461 23.1288 606.105 22.8636 606.855 22.8636C607.582 22.8636 608.219 23.1288 608.764 23.6591C609.31 24.1894 609.582 24.8258 609.582 25.5682C609.582 26.0682 609.454 26.5265 609.196 26.9432C608.946 27.3523 608.616 27.6818 608.207 27.9318C607.798 28.1742 607.348 28.2955 606.855 28.2955ZM606.855 16.875C606.105 16.875 605.461 16.6098 604.923 16.0795C604.393 15.5492 604.128 14.9053 604.128 14.1477C604.128 13.4053 604.393 12.7727 604.923 12.25C605.461 11.7197 606.105 11.4545 606.855 11.4545C607.582 11.4545 608.219 11.7197 608.764 12.25C609.31 12.7727 609.582 13.4053 609.582 14.1477C609.582 14.6553 609.454 15.1174 609.196 15.5341C608.946 15.9432 608.616 16.2689 608.207 16.5114C607.798 16.7538 607.348 16.875 606.855 16.875ZM621.054 31V7.72727H630.236C632.001 7.72727 633.505 8.06439 634.747 8.73864C635.99 9.4053 636.937 10.3333 637.588 11.5227C638.247 12.7045 638.577 14.0682 638.577 15.6136C638.577 17.1591 638.243 18.5227 637.577 19.7045C636.91 20.8864 635.944 21.8068 634.679 22.4659C633.421 23.125 631.899 23.4545 630.111 23.4545H624.259V19.5114H629.315C630.262 19.5114 631.043 19.3485 631.656 19.0227C632.277 18.6894 632.74 18.2311 633.043 17.6477C633.353 17.0568 633.509 16.3788 633.509 15.6136C633.509 14.8409 633.353 14.1667 633.043 13.5909C632.74 13.0076 632.277 12.5568 631.656 12.2386C631.035 11.9129 630.247 11.75 629.293 11.75H625.974V31H621.054ZM652.875 23.5682V13.5455H657.716V31H653.068V27.8295H652.886C652.492 28.8523 651.837 29.6742 650.92 30.2955C650.011 30.9167 648.902 31.2273 647.591 31.2273C646.424 31.2273 645.398 30.9621 644.511 30.4318C643.625 29.9015 642.932 29.1477 642.432 28.1705C641.939 27.1932 641.689 26.0227 641.682 24.6591V13.5455H646.523V23.7955C646.53 24.8258 646.807 25.6402 647.352 26.2386C647.898 26.8371 648.629 27.1364 649.545 27.1364C650.129 27.1364 650.674 27.0038 651.182 26.7386C651.689 26.4659 652.098 26.0644 652.409 25.5341C652.727 25.0038 652.883 24.3485 652.875 23.5682ZM661.679 31V7.72727H666.52V16.4773H666.668C666.88 16.0076 667.187 15.5303 667.588 15.0455C667.997 14.553 668.527 14.1439 669.179 13.8182C669.838 13.4848 670.656 13.3182 671.634 13.3182C672.906 13.3182 674.08 13.6515 675.156 14.3182C676.232 14.9773 677.092 15.9735 677.736 17.3068C678.38 18.6326 678.702 20.2955 678.702 22.2955C678.702 24.2424 678.387 25.8864 677.759 27.2273C677.137 28.5606 676.289 29.572 675.213 30.2614C674.145 30.9432 672.948 31.2841 671.622 31.2841C670.683 31.2841 669.884 31.1288 669.224 30.8182C668.573 30.5076 668.039 30.1174 667.622 29.6477C667.205 29.1705 666.887 28.6894 666.668 28.2045H666.452V31H661.679ZM666.418 22.2727C666.418 23.3106 666.562 24.2159 666.849 24.9886C667.137 25.7614 667.554 26.3636 668.099 26.7955C668.645 27.2197 669.308 27.4318 670.088 27.4318C670.876 27.4318 671.543 27.2159 672.088 26.7841C672.634 26.3447 673.046 25.7386 673.327 24.9659C673.615 24.1856 673.759 23.2879 673.759 22.2727C673.759 21.2652 673.618 20.3788 673.338 19.6136C673.058 18.8485 672.645 18.25 672.099 17.8182C671.554 17.3864 670.884 17.1705 670.088 17.1705C669.3 17.1705 668.634 17.3788 668.088 17.7955C667.55 18.2121 667.137 18.803 666.849 19.5682C666.562 20.3333 666.418 21.2348 666.418 22.2727ZM686.773 7.72727V31H681.932V7.72727H686.773ZM690.651 31V13.5455H695.491V31H690.651ZM693.082 11.2955C692.363 11.2955 691.745 11.0568 691.23 10.5795C690.723 10.0947 690.469 9.51515 690.469 8.84091C690.469 8.17424 690.723 7.60227 691.23 7.125C691.745 6.64015 692.363 6.39773 693.082 6.39773C693.802 6.39773 694.416 6.64015 694.923 7.125C695.438 7.60227 695.696 8.17424 695.696 8.84091C695.696 9.51515 695.438 10.0947 694.923 10.5795C694.416 11.0568 693.802 11.2955 693.082 11.2955ZM707.256 31.3409C705.468 31.3409 703.93 30.9621 702.642 30.2045C701.362 29.4394 700.377 28.3788 699.688 27.0227C699.006 25.6667 698.665 24.1061 698.665 22.3409C698.665 20.553 699.009 18.9848 699.699 17.6364C700.396 16.2803 701.384 15.2235 702.665 14.4659C703.945 13.7008 705.468 13.3182 707.233 13.3182C708.756 13.3182 710.089 13.5947 711.233 14.1477C712.377 14.7008 713.282 15.4773 713.949 16.4773C714.616 17.4773 714.983 18.6515 715.051 20H710.483C710.354 19.1288 710.013 18.428 709.46 17.8977C708.915 17.3598 708.199 17.0909 707.312 17.0909C706.562 17.0909 705.907 17.2955 705.347 17.7045C704.794 18.1061 704.362 18.6932 704.051 19.4659C703.741 20.2386 703.585 21.1742 703.585 22.2727C703.585 23.3864 703.737 24.3333 704.04 25.1136C704.35 25.8939 704.786 26.4886 705.347 26.8977C705.907 27.3068 706.562 27.5114 707.312 27.5114C707.866 27.5114 708.362 27.3977 708.801 27.1705C709.248 26.9432 709.616 26.6136 709.903 26.1818C710.199 25.7424 710.392 25.2159 710.483 24.6023H715.051C714.975 25.9356 714.612 27.1098 713.96 28.125C713.316 29.1326 712.426 29.9205 711.29 30.4886C710.153 31.0568 708.809 31.3409 707.256 31.3409ZM740.08 18.5227L735.648 18.7955C735.572 18.4167 735.409 18.0758 735.159 17.7727C734.909 17.4621 734.58 17.2159 734.17 17.0341C733.769 16.8447 733.288 16.75 732.727 16.75C731.977 16.75 731.345 16.9091 730.83 17.2273C730.314 17.5379 730.057 17.9545 730.057 18.4773C730.057 18.8939 730.223 19.2462 730.557 19.5341C730.89 19.822 731.462 20.053 732.273 20.2273L735.432 20.8636C737.129 21.2121 738.394 21.7727 739.227 22.5455C740.061 23.3182 740.477 24.3333 740.477 25.5909C740.477 26.7348 740.14 27.7386 739.466 28.6023C738.799 29.4659 737.883 30.1402 736.716 30.625C735.557 31.1023 734.22 31.3409 732.705 31.3409C730.394 31.3409 728.553 30.8598 727.182 29.8977C725.818 28.928 725.019 27.6098 724.784 25.9432L729.545 25.6932C729.689 26.3977 730.038 26.9356 730.591 27.3068C731.144 27.6705 731.852 27.8523 732.716 27.8523C733.564 27.8523 734.246 27.6894 734.761 27.3636C735.284 27.0303 735.549 26.6023 735.557 26.0795C735.549 25.6402 735.364 25.2803 735 25C734.636 24.7121 734.076 24.4924 733.318 24.3409L730.295 23.7386C728.591 23.3977 727.322 22.8068 726.489 21.9659C725.663 21.125 725.25 20.053 725.25 18.75C725.25 17.6288 725.553 16.6629 726.159 15.8523C726.773 15.0417 727.633 14.4167 728.739 13.9773C729.852 13.5379 731.155 13.3182 732.648 13.3182C734.852 13.3182 736.587 13.7841 737.852 14.7159C739.125 15.6477 739.867 16.9167 740.08 18.5227ZM748.503 31.3295C747.389 31.3295 746.397 31.1364 745.526 30.75C744.654 30.3561 743.965 29.7765 743.457 29.0114C742.957 28.2386 742.707 27.2765 742.707 26.125C742.707 25.1553 742.885 24.3409 743.241 23.6818C743.598 23.0227 744.082 22.4924 744.696 22.0909C745.31 21.6894 746.007 21.3864 746.787 21.1818C747.575 20.9773 748.401 20.8333 749.264 20.75C750.279 20.6439 751.098 20.5455 751.719 20.4545C752.34 20.3561 752.791 20.2121 753.071 20.0227C753.351 19.8333 753.491 19.553 753.491 19.1818V19.1136C753.491 18.3939 753.264 17.8371 752.81 17.4432C752.363 17.0492 751.726 16.8523 750.901 16.8523C750.029 16.8523 749.336 17.0455 748.821 17.4318C748.306 17.8106 747.965 18.2879 747.798 18.8636L743.321 18.5C743.548 17.4394 743.995 16.5227 744.662 15.75C745.329 14.9697 746.188 14.3712 747.241 13.9545C748.302 13.5303 749.529 13.3182 750.923 13.3182C751.893 13.3182 752.821 13.4318 753.707 13.6591C754.601 13.8864 755.393 14.2386 756.082 14.7159C756.779 15.1932 757.329 15.8068 757.73 16.5568C758.132 17.2992 758.332 18.1894 758.332 19.2273V31H753.741V28.5795H753.605C753.325 29.125 752.95 29.6061 752.48 30.0227C752.01 30.4318 751.446 30.7538 750.787 30.9886C750.128 31.2159 749.366 31.3295 748.503 31.3295ZM749.889 27.9886C750.601 27.9886 751.23 27.8485 751.776 27.5682C752.321 27.2803 752.749 26.8939 753.06 26.4091C753.37 25.9242 753.526 25.375 753.526 24.7614V22.9091C753.374 23.0076 753.166 23.0985 752.901 23.1818C752.643 23.2576 752.351 23.3295 752.026 23.3977C751.7 23.4583 751.374 23.5152 751.048 23.5682C750.723 23.6136 750.427 23.6553 750.162 23.6932C749.594 23.7765 749.098 23.9091 748.673 24.0909C748.249 24.2727 747.92 24.5189 747.685 24.8295C747.45 25.1326 747.332 25.5114 747.332 25.9659C747.332 26.625 747.571 27.1288 748.048 27.4773C748.533 27.8182 749.147 27.9886 749.889 27.9886ZM766.929 7.72727V31H762.088V7.72727H766.929ZM778.761 31.3409C776.966 31.3409 775.42 30.9773 774.125 30.25C772.837 29.5152 771.845 28.4773 771.148 27.1364C770.451 25.7879 770.102 24.1932 770.102 22.3523C770.102 20.5568 770.451 18.9811 771.148 17.625C771.845 16.2689 772.826 15.2121 774.091 14.4545C775.364 13.697 776.856 13.3182 778.568 13.3182C779.72 13.3182 780.792 13.5038 781.784 13.875C782.784 14.2386 783.655 14.7879 784.398 15.5227C785.148 16.2576 785.731 17.1818 786.148 18.2955C786.564 19.4015 786.773 20.697 786.773 22.1818V23.5114H772.034V20.5114H782.216C782.216 19.8144 782.064 19.197 781.761 18.6591C781.458 18.1212 781.038 17.7008 780.5 17.3977C779.97 17.0871 779.352 16.9318 778.648 16.9318C777.913 16.9318 777.261 17.1023 776.693 17.4432C776.133 17.7765 775.693 18.2273 775.375 18.7955C775.057 19.3561 774.894 19.9811 774.886 20.6705V23.5227C774.886 24.3864 775.045 25.1326 775.364 25.7614C775.689 26.3902 776.148 26.875 776.739 27.2159C777.33 27.5568 778.03 27.7273 778.841 27.7273C779.379 27.7273 779.871 27.6515 780.318 27.5C780.765 27.3485 781.148 27.1212 781.466 26.8182C781.784 26.5152 782.027 26.1439 782.193 25.7045L786.67 26C786.443 27.0758 785.977 28.0152 785.273 28.8182C784.576 29.6136 783.674 30.2348 782.568 30.6818C781.47 31.1212 780.201 31.3409 778.761 31.3409Z" fill="white"/>
<path d="M149.793 79.3182C148.187 79.3182 146.755 79.0227 145.497 78.4318C144.247 77.8409 143.255 77.0265 142.52 75.9886C141.785 74.9508 141.402 73.7614 141.372 72.4205H146.145C146.198 73.322 146.577 74.053 147.281 74.6136C147.986 75.1742 148.823 75.4545 149.793 75.4545C150.565 75.4545 151.247 75.2841 151.838 74.9432C152.437 74.5947 152.902 74.1136 153.236 73.5C153.577 72.8788 153.747 72.1667 153.747 71.3636C153.747 70.5455 153.573 69.8258 153.224 69.2045C152.884 68.5833 152.41 68.0985 151.804 67.75C151.198 67.4015 150.505 67.2235 149.724 67.2159C149.043 67.2159 148.38 67.3561 147.736 67.6364C147.099 67.9167 146.603 68.2992 146.247 68.7841L141.872 68L142.974 55.7273H157.202V59.75H147.031L146.429 65.5795H146.565C146.974 65.0038 147.592 64.5265 148.418 64.1477C149.243 63.7689 150.168 63.5795 151.19 63.5795C152.592 63.5795 153.842 63.9091 154.94 64.5682C156.039 65.2273 156.906 66.1326 157.543 67.2841C158.179 68.428 158.493 69.7462 158.486 71.2386C158.493 72.8068 158.13 74.2008 157.395 75.4205C156.668 76.6326 155.649 77.5871 154.338 78.2841C153.035 78.9735 151.52 79.3182 149.793 79.3182ZM174.656 74.6364V73.4091C174.656 72.4773 174.853 71.6212 175.247 70.8409C175.649 70.053 176.228 69.4242 176.986 68.9545C177.751 68.4773 178.683 68.2386 179.781 68.2386C180.895 68.2386 181.83 68.4735 182.588 68.9432C183.353 69.4129 183.929 70.0417 184.315 70.8295C184.709 71.6098 184.906 72.4697 184.906 73.4091V74.6364C184.906 75.5682 184.709 76.428 184.315 77.2159C183.921 77.9962 183.342 78.6212 182.577 79.0909C181.812 79.5682 180.88 79.8068 179.781 79.8068C178.668 79.8068 177.732 79.5682 176.974 79.0909C176.217 78.6212 175.641 77.9962 175.247 77.2159C174.853 76.428 174.656 75.5682 174.656 74.6364ZM177.963 73.4091V74.6364C177.963 75.1742 178.092 75.6818 178.349 76.1591C178.615 76.6364 179.092 76.875 179.781 76.875C180.471 76.875 180.94 76.6402 181.19 76.1705C181.448 75.7008 181.577 75.1894 181.577 74.6364V73.4091C181.577 72.8561 181.455 72.3409 181.213 71.8636C180.971 71.3864 180.493 71.1477 179.781 71.1477C179.099 71.1477 178.626 71.3864 178.361 71.8636C178.096 72.3409 177.963 72.8561 177.963 73.4091ZM162.713 61.3182V60.0909C162.713 59.1515 162.914 58.2917 163.315 57.5114C163.717 56.7235 164.296 56.0947 165.054 55.625C165.819 55.1553 166.743 54.9205 167.827 54.9205C168.948 54.9205 169.887 55.1553 170.645 55.625C171.402 56.0947 171.978 56.7235 172.372 57.5114C172.766 58.2917 172.963 59.1515 172.963 60.0909V61.3182C172.963 62.2576 172.762 63.1174 172.361 63.8977C171.967 64.678 171.387 65.303 170.622 65.7727C169.865 66.2348 168.933 66.4659 167.827 66.4659C166.721 66.4659 165.785 66.2311 165.02 65.7614C164.262 65.2841 163.687 64.6591 163.293 63.8864C162.906 63.1061 162.713 62.25 162.713 61.3182ZM166.043 60.0909V61.3182C166.043 61.8712 166.171 62.3826 166.429 62.8523C166.694 63.322 167.16 63.5568 167.827 63.5568C168.524 63.5568 168.997 63.322 169.247 62.8523C169.505 62.3826 169.634 61.8712 169.634 61.3182V60.0909C169.634 59.5379 169.512 59.0227 169.27 58.5455C169.027 58.0682 168.546 57.8295 167.827 57.8295C167.152 57.8295 166.687 58.072 166.429 58.5568C166.171 59.0417 166.043 59.553 166.043 60.0909ZM164.213 79L180.213 55.7273H183.19L167.19 79H164.213ZM192.293 76.2955C191.543 76.2955 190.899 76.0303 190.361 75.5C189.83 74.9697 189.565 74.3258 189.565 73.5682C189.565 72.8258 189.83 72.1894 190.361 71.6591C190.899 71.1288 191.543 70.8636 192.293 70.8636C193.02 70.8636 193.656 71.1288 194.202 71.6591C194.747 72.1894 195.02 72.8258 195.02 73.5682C195.02 74.0682 194.891 74.5265 194.634 74.9432C194.384 75.3523 194.054 75.6818 193.645 75.9318C193.236 76.1742 192.785 76.2955 192.293 76.2955ZM192.293 64.875C191.543 64.875 190.899 64.6098 190.361 64.0795C189.83 63.5492 189.565 62.9053 189.565 62.1477C189.565 61.4053 189.83 60.7727 190.361 60.25C190.899 59.7197 191.543 59.4545 192.293 59.4545C193.02 59.4545 193.656 59.7197 194.202 60.25C194.747 60.7727 195.02 61.4053 195.02 62.1477C195.02 62.6553 194.891 63.1174 194.634 63.5341C194.384 63.9432 194.054 64.2689 193.645 64.5114C193.236 64.7538 192.785 64.875 192.293 64.875ZM206.491 79V55.7273H215.673C217.438 55.7273 218.942 56.0644 220.185 56.7386C221.427 57.4053 222.374 58.3333 223.026 59.5227C223.685 60.7045 224.014 62.0682 224.014 63.6136C224.014 65.1591 223.681 66.5227 223.014 67.7045C222.348 68.8864 221.382 69.8068 220.116 70.4659C218.859 71.125 217.336 71.4545 215.548 71.4545H209.696V67.5114H214.753C215.7 67.5114 216.48 67.3485 217.094 67.0227C217.715 66.6894 218.177 66.2311 218.48 65.6477C218.791 65.0568 218.946 64.3788 218.946 63.6136C218.946 62.8409 218.791 62.1667 218.48 61.5909C218.177 61.0076 217.715 60.5568 217.094 60.2386C216.473 59.9129 215.685 59.75 214.73 59.75H211.412V79H206.491ZM227.119 79V61.5455H231.812V64.5909H231.994C232.313 63.5076 232.847 62.6894 233.597 62.1364C234.347 61.5758 235.21 61.2955 236.188 61.2955C236.43 61.2955 236.691 61.3106 236.972 61.3409C237.252 61.3712 237.498 61.4129 237.71 61.4659V65.7614C237.483 65.6932 237.169 65.6326 236.767 65.5795C236.366 65.5265 235.998 65.5 235.665 65.5C234.953 65.5 234.316 65.6553 233.756 65.9659C233.203 66.2689 232.763 66.6932 232.438 67.2386C232.119 67.7841 231.96 68.4129 231.96 69.125V79H227.119ZM240.213 79V61.5455H245.054V79H240.213ZM242.645 59.2955C241.925 59.2955 241.308 59.0568 240.793 58.5795C240.285 58.0947 240.031 57.5152 240.031 56.8409C240.031 56.1742 240.285 55.6023 240.793 55.125C241.308 54.6402 241.925 54.3977 242.645 54.3977C243.365 54.3977 243.978 54.6402 244.486 55.125C245.001 55.6023 245.259 56.1742 245.259 56.8409C245.259 57.5152 245.001 58.0947 244.486 58.5795C243.978 59.0568 243.365 59.2955 242.645 59.2955ZM265.205 61.5455L259.102 79H253.648L247.545 61.5455H252.659L256.284 74.0341H256.466L260.08 61.5455H265.205ZM272.19 79.3295C271.077 79.3295 270.084 79.1364 269.213 78.75C268.342 78.3561 267.652 77.7765 267.145 77.0114C266.645 76.2386 266.395 75.2765 266.395 74.125C266.395 73.1553 266.573 72.3409 266.929 71.6818C267.285 71.0227 267.77 70.4924 268.384 70.0909C268.997 69.6894 269.694 69.3864 270.474 69.1818C271.262 68.9773 272.088 68.8333 272.952 68.75C273.967 68.6439 274.785 68.5455 275.406 68.4545C276.027 68.3561 276.478 68.2121 276.759 68.0227C277.039 67.8333 277.179 67.553 277.179 67.1818V67.1136C277.179 66.3939 276.952 65.8371 276.497 65.4432C276.05 65.0492 275.414 64.8523 274.588 64.8523C273.717 64.8523 273.024 65.0455 272.509 65.4318C271.993 65.8106 271.652 66.2879 271.486 66.8636L267.009 66.5C267.236 65.4394 267.683 64.5227 268.349 63.75C269.016 62.9697 269.876 62.3712 270.929 61.9545C271.99 61.5303 273.217 61.3182 274.611 61.3182C275.58 61.3182 276.509 61.4318 277.395 61.6591C278.289 61.8864 279.08 62.2386 279.77 62.7159C280.467 63.1932 281.016 63.8068 281.418 64.5568C281.819 65.2992 282.02 66.1894 282.02 67.2273V79H277.429V76.5795H277.293C277.012 77.125 276.637 77.6061 276.168 78.0227C275.698 78.4318 275.134 78.7538 274.474 78.9886C273.815 79.2159 273.054 79.3295 272.19 79.3295ZM273.577 75.9886C274.289 75.9886 274.918 75.8485 275.463 75.5682C276.009 75.2803 276.437 74.8939 276.747 74.4091C277.058 73.9242 277.213 73.375 277.213 72.7614V70.9091C277.062 71.0076 276.853 71.0985 276.588 71.1818C276.33 71.2576 276.039 71.3295 275.713 71.3977C275.387 71.4583 275.062 71.5152 274.736 71.5682C274.41 71.6136 274.115 71.6553 273.849 71.6932C273.281 71.7765 272.785 71.9091 272.361 72.0909C271.937 72.2727 271.607 72.5189 271.372 72.8295C271.137 73.1326 271.02 73.5114 271.02 73.9659C271.02 74.625 271.259 75.1288 271.736 75.4773C272.221 75.8182 272.834 75.9886 273.577 75.9886ZM295.06 61.5455V65.1818H284.548V61.5455H295.06ZM286.935 57.3636H291.776V73.6364C291.776 74.0833 291.844 74.4318 291.98 74.6818C292.116 74.9242 292.306 75.0947 292.548 75.1932C292.798 75.2917 293.086 75.3409 293.412 75.3409C293.639 75.3409 293.866 75.322 294.094 75.2841C294.321 75.2386 294.495 75.2045 294.616 75.1818L295.378 78.7841C295.135 78.8598 294.795 78.947 294.355 79.0455C293.916 79.1515 293.382 79.2159 292.753 79.2386C291.586 79.2841 290.563 79.1288 289.685 78.7727C288.813 78.4167 288.135 77.8636 287.651 77.1136C287.166 76.3636 286.927 75.4167 286.935 74.2727V57.3636ZM305.98 79.3409C304.185 79.3409 302.639 78.9773 301.344 78.25C300.056 77.5152 299.063 76.4773 298.366 75.1364C297.67 73.7879 297.321 72.1932 297.321 70.3523C297.321 68.5568 297.67 66.9811 298.366 65.625C299.063 64.2689 300.045 63.2121 301.31 62.4545C302.582 61.697 304.075 61.3182 305.787 61.3182C306.938 61.3182 308.01 61.5038 309.003 61.875C310.003 62.2386 310.874 62.7879 311.616 63.5227C312.366 64.2576 312.95 65.1818 313.366 66.2955C313.783 67.4015 313.991 68.697 313.991 70.1818V71.5114H299.253V68.5114H309.435C309.435 67.8144 309.283 67.197 308.98 66.6591C308.677 66.1212 308.257 65.7008 307.719 65.3977C307.188 65.0871 306.571 64.9318 305.866 64.9318C305.132 64.9318 304.48 65.1023 303.912 65.4432C303.351 65.7765 302.912 66.2273 302.594 66.7955C302.276 67.3561 302.113 67.9811 302.105 68.6705V71.5227C302.105 72.3864 302.264 73.1326 302.582 73.7614C302.908 74.3902 303.366 74.875 303.957 75.2159C304.548 75.5568 305.249 75.7273 306.06 75.7273C306.598 75.7273 307.09 75.6515 307.537 75.5C307.984 75.3485 308.366 75.1212 308.685 74.8182C309.003 74.5152 309.245 74.1439 309.412 73.7045L313.889 74C313.662 75.0758 313.196 76.0152 312.491 76.8182C311.795 77.6136 310.893 78.2348 309.787 78.6818C308.688 79.1212 307.42 79.3409 305.98 79.3409ZM339.08 66.5227L334.648 66.7955C334.572 66.4167 334.409 66.0758 334.159 65.7727C333.909 65.4621 333.58 65.2159 333.17 65.0341C332.769 64.8447 332.288 64.75 331.727 64.75C330.977 64.75 330.345 64.9091 329.83 65.2273C329.314 65.5379 329.057 65.9545 329.057 66.4773C329.057 66.8939 329.223 67.2462 329.557 67.5341C329.89 67.822 330.462 68.053 331.273 68.2273L334.432 68.8636C336.129 69.2121 337.394 69.7727 338.227 70.5455C339.061 71.3182 339.477 72.3333 339.477 73.5909C339.477 74.7348 339.14 75.7386 338.466 76.6023C337.799 77.4659 336.883 78.1402 335.716 78.625C334.557 79.1023 333.22 79.3409 331.705 79.3409C329.394 79.3409 327.553 78.8598 326.182 77.8977C324.818 76.928 324.019 75.6098 323.784 73.9432L328.545 73.6932C328.689 74.3977 329.038 74.9356 329.591 75.3068C330.144 75.6705 330.852 75.8523 331.716 75.8523C332.564 75.8523 333.246 75.6894 333.761 75.3636C334.284 75.0303 334.549 74.6023 334.557 74.0795C334.549 73.6402 334.364 73.2803 334 73C333.636 72.7121 333.076 72.4924 332.318 72.3409L329.295 71.7386C327.591 71.3977 326.322 70.8068 325.489 69.9659C324.663 69.125 324.25 68.053 324.25 66.75C324.25 65.6288 324.553 64.6629 325.159 63.8523C325.773 63.0417 326.633 62.4167 327.739 61.9773C328.852 61.5379 330.155 61.3182 331.648 61.3182C333.852 61.3182 335.587 61.7841 336.852 62.7159C338.125 63.6477 338.867 64.9167 339.08 66.5227ZM347.503 79.3295C346.389 79.3295 345.397 79.1364 344.526 78.75C343.654 78.3561 342.965 77.7765 342.457 77.0114C341.957 76.2386 341.707 75.2765 341.707 74.125C341.707 73.1553 341.885 72.3409 342.241 71.6818C342.598 71.0227 343.082 70.4924 343.696 70.0909C344.31 69.6894 345.007 69.3864 345.787 69.1818C346.575 68.9773 347.401 68.8333 348.264 68.75C349.279 68.6439 350.098 68.5455 350.719 68.4545C351.34 68.3561 351.791 68.2121 352.071 68.0227C352.351 67.8333 352.491 67.553 352.491 67.1818V67.1136C352.491 66.3939 352.264 65.8371 351.81 65.4432C351.363 65.0492 350.726 64.8523 349.901 64.8523C349.029 64.8523 348.336 65.0455 347.821 65.4318C347.306 65.8106 346.965 66.2879 346.798 66.8636L342.321 66.5C342.548 65.4394 342.995 64.5227 343.662 63.75C344.329 62.9697 345.188 62.3712 346.241 61.9545C347.302 61.5303 348.529 61.3182 349.923 61.3182C350.893 61.3182 351.821 61.4318 352.707 61.6591C353.601 61.8864 354.393 62.2386 355.082 62.7159C355.779 63.1932 356.329 63.8068 356.73 64.5568C357.132 65.2992 357.332 66.1894 357.332 67.2273V79H352.741V76.5795H352.605C352.325 77.125 351.95 77.6061 351.48 78.0227C351.01 78.4318 350.446 78.7538 349.787 78.9886C349.128 79.2159 348.366 79.3295 347.503 79.3295ZM348.889 75.9886C349.601 75.9886 350.23 75.8485 350.776 75.5682C351.321 75.2803 351.749 74.8939 352.06 74.4091C352.37 73.9242 352.526 73.375 352.526 72.7614V70.9091C352.374 71.0076 352.166 71.0985 351.901 71.1818C351.643 71.2576 351.351 71.3295 351.026 71.3977C350.7 71.4583 350.374 71.5152 350.048 71.5682C349.723 71.6136 349.427 71.6553 349.162 71.6932C348.594 71.7765 348.098 71.9091 347.673 72.0909C347.249 72.2727 346.92 72.5189 346.685 72.8295C346.45 73.1326 346.332 73.5114 346.332 73.9659C346.332 74.625 346.571 75.1288 347.048 75.4773C347.533 75.8182 348.147 75.9886 348.889 75.9886ZM365.929 55.7273V79H361.088V55.7273H365.929ZM377.761 79.3409C375.966 79.3409 374.42 78.9773 373.125 78.25C371.837 77.5152 370.845 76.4773 370.148 75.1364C369.451 73.7879 369.102 72.1932 369.102 70.3523C369.102 68.5568 369.451 66.9811 370.148 65.625C370.845 64.2689 371.826 63.2121 373.091 62.4545C374.364 61.697 375.856 61.3182 377.568 61.3182C378.72 61.3182 379.792 61.5038 380.784 61.875C381.784 62.2386 382.655 62.7879 383.398 63.5227C384.148 64.2576 384.731 65.1818 385.148 66.2955C385.564 67.4015 385.773 68.697 385.773 70.1818V71.5114H371.034V68.5114H381.216C381.216 67.8144 381.064 67.197 380.761 66.6591C380.458 66.1212 380.038 65.7008 379.5 65.3977C378.97 65.0871 378.352 64.9318 377.648 64.9318C376.913 64.9318 376.261 65.1023 375.693 65.4432C375.133 65.7765 374.693 66.2273 374.375 66.7955C374.057 67.3561 373.894 67.9811 373.886 68.6705V71.5227C373.886 72.3864 374.045 73.1326 374.364 73.7614C374.689 74.3902 375.148 74.875 375.739 75.2159C376.33 75.5568 377.03 75.7273 377.841 75.7273C378.379 75.7273 378.871 75.6515 379.318 75.5C379.765 75.3485 380.148 75.1212 380.466 74.8182C380.784 74.5152 381.027 74.1439 381.193 73.7045L385.67 74C385.443 75.0758 384.977 76.0152 384.273 76.8182C383.576 77.6136 382.674 78.2348 381.568 78.6818C380.47 79.1212 379.201 79.3409 377.761 79.3409Z" fill="white"/>
<path d="M129.824 159.318C128.218 159.318 126.786 159.023 125.528 158.432C124.278 157.841 123.286 157.027 122.551 155.989C121.816 154.951 121.434 153.761 121.403 152.42H126.176C126.229 153.322 126.608 154.053 127.312 154.614C128.017 155.174 128.854 155.455 129.824 155.455C130.597 155.455 131.278 155.284 131.869 154.943C132.468 154.595 132.934 154.114 133.267 153.5C133.608 152.879 133.778 152.167 133.778 151.364C133.778 150.545 133.604 149.826 133.256 149.205C132.915 148.583 132.441 148.098 131.835 147.75C131.229 147.402 130.536 147.223 129.756 147.216C129.074 147.216 128.411 147.356 127.767 147.636C127.131 147.917 126.634 148.299 126.278 148.784L121.903 148L123.006 135.727H137.233V139.75H127.062L126.46 145.58H126.597C127.006 145.004 127.623 144.527 128.449 144.148C129.275 143.769 130.199 143.58 131.222 143.58C132.623 143.58 133.873 143.909 134.972 144.568C136.07 145.227 136.938 146.133 137.574 147.284C138.21 148.428 138.525 149.746 138.517 151.239C138.525 152.807 138.161 154.201 137.426 155.42C136.699 156.633 135.68 157.587 134.369 158.284C133.066 158.973 131.551 159.318 129.824 159.318ZM154.688 154.636V153.409C154.688 152.477 154.884 151.621 155.278 150.841C155.68 150.053 156.259 149.424 157.017 148.955C157.782 148.477 158.714 148.239 159.812 148.239C160.926 148.239 161.862 148.473 162.619 148.943C163.384 149.413 163.96 150.042 164.347 150.83C164.741 151.61 164.938 152.47 164.938 153.409V154.636C164.938 155.568 164.741 156.428 164.347 157.216C163.953 157.996 163.373 158.621 162.608 159.091C161.843 159.568 160.911 159.807 159.812 159.807C158.699 159.807 157.763 159.568 157.006 159.091C156.248 158.621 155.672 157.996 155.278 157.216C154.884 156.428 154.688 155.568 154.688 154.636ZM157.994 153.409V154.636C157.994 155.174 158.123 155.682 158.381 156.159C158.646 156.636 159.123 156.875 159.812 156.875C160.502 156.875 160.972 156.64 161.222 156.17C161.479 155.701 161.608 155.189 161.608 154.636V153.409C161.608 152.856 161.487 152.341 161.244 151.864C161.002 151.386 160.525 151.148 159.812 151.148C159.131 151.148 158.657 151.386 158.392 151.864C158.127 152.341 157.994 152.856 157.994 153.409ZM142.744 141.318V140.091C142.744 139.152 142.945 138.292 143.347 137.511C143.748 136.723 144.328 136.095 145.085 135.625C145.85 135.155 146.775 134.92 147.858 134.92C148.979 134.92 149.919 135.155 150.676 135.625C151.434 136.095 152.009 136.723 152.403 137.511C152.797 138.292 152.994 139.152 152.994 140.091V141.318C152.994 142.258 152.794 143.117 152.392 143.898C151.998 144.678 151.419 145.303 150.653 145.773C149.896 146.235 148.964 146.466 147.858 146.466C146.752 146.466 145.816 146.231 145.051 145.761C144.294 145.284 143.718 144.659 143.324 143.886C142.938 143.106 142.744 142.25 142.744 141.318ZM146.074 140.091V141.318C146.074 141.871 146.203 142.383 146.46 142.852C146.725 143.322 147.191 143.557 147.858 143.557C148.555 143.557 149.028 143.322 149.278 142.852C149.536 142.383 149.665 141.871 149.665 141.318V140.091C149.665 139.538 149.544 139.023 149.301 138.545C149.059 138.068 148.578 137.83 147.858 137.83C147.184 137.83 146.718 138.072 146.46 138.557C146.203 139.042 146.074 139.553 146.074 140.091ZM144.244 159L160.244 135.727H163.222L147.222 159H144.244ZM172.324 156.295C171.574 156.295 170.93 156.03 170.392 155.5C169.862 154.97 169.597 154.326 169.597 153.568C169.597 152.826 169.862 152.189 170.392 151.659C170.93 151.129 171.574 150.864 172.324 150.864C173.051 150.864 173.688 151.129 174.233 151.659C174.778 152.189 175.051 152.826 175.051 153.568C175.051 154.068 174.922 154.527 174.665 154.943C174.415 155.352 174.085 155.682 173.676 155.932C173.267 156.174 172.816 156.295 172.324 156.295ZM172.324 144.875C171.574 144.875 170.93 144.61 170.392 144.08C169.862 143.549 169.597 142.905 169.597 142.148C169.597 141.405 169.862 140.773 170.392 140.25C170.93 139.72 171.574 139.455 172.324 139.455C173.051 139.455 173.688 139.72 174.233 140.25C174.778 140.773 175.051 141.405 175.051 142.148C175.051 142.655 174.922 143.117 174.665 143.534C174.415 143.943 174.085 144.269 173.676 144.511C173.267 144.754 172.816 144.875 172.324 144.875ZM186.523 159V135.727H195.705C197.47 135.727 198.973 136.064 200.216 136.739C201.458 137.405 202.405 138.333 203.057 139.523C203.716 140.705 204.045 142.068 204.045 143.614C204.045 145.159 203.712 146.523 203.045 147.705C202.379 148.886 201.413 149.807 200.148 150.466C198.89 151.125 197.367 151.455 195.58 151.455H189.727V147.511H194.784C195.731 147.511 196.511 147.348 197.125 147.023C197.746 146.689 198.208 146.231 198.511 145.648C198.822 145.057 198.977 144.379 198.977 143.614C198.977 142.841 198.822 142.167 198.511 141.591C198.208 141.008 197.746 140.557 197.125 140.239C196.504 139.913 195.716 139.75 194.761 139.75H191.443V159H186.523ZM207.151 159V141.545H211.844V144.591H212.026C212.344 143.508 212.878 142.689 213.628 142.136C214.378 141.576 215.241 141.295 216.219 141.295C216.461 141.295 216.723 141.311 217.003 141.341C217.283 141.371 217.529 141.413 217.741 141.466V145.761C217.514 145.693 217.2 145.633 216.798 145.58C216.397 145.527 216.029 145.5 215.696 145.5C214.984 145.5 214.348 145.655 213.787 145.966C213.234 146.269 212.795 146.693 212.469 147.239C212.151 147.784 211.991 148.413 211.991 149.125V159H207.151ZM227.386 159.341C225.591 159.341 224.045 158.977 222.75 158.25C221.462 157.515 220.47 156.477 219.773 155.136C219.076 153.788 218.727 152.193 218.727 150.352C218.727 148.557 219.076 146.981 219.773 145.625C220.47 144.269 221.451 143.212 222.716 142.455C223.989 141.697 225.481 141.318 227.193 141.318C228.345 141.318 229.417 141.504 230.409 141.875C231.409 142.239 232.28 142.788 233.023 143.523C233.773 144.258 234.356 145.182 234.773 146.295C235.189 147.402 235.398 148.697 235.398 150.182V151.511H220.659V148.511H230.841C230.841 147.814 230.689 147.197 230.386 146.659C230.083 146.121 229.663 145.701 229.125 145.398C228.595 145.087 227.977 144.932 227.273 144.932C226.538 144.932 225.886 145.102 225.318 145.443C224.758 145.777 224.318 146.227 224 146.795C223.682 147.356 223.519 147.981 223.511 148.67V151.523C223.511 152.386 223.67 153.133 223.989 153.761C224.314 154.39 224.773 154.875 225.364 155.216C225.955 155.557 226.655 155.727 227.466 155.727C228.004 155.727 228.496 155.652 228.943 155.5C229.39 155.348 229.773 155.121 230.091 154.818C230.409 154.515 230.652 154.144 230.818 153.705L235.295 154C235.068 155.076 234.602 156.015 233.898 156.818C233.201 157.614 232.299 158.235 231.193 158.682C230.095 159.121 228.826 159.341 227.386 159.341ZM253.08 146.523L248.648 146.795C248.572 146.417 248.409 146.076 248.159 145.773C247.909 145.462 247.58 145.216 247.17 145.034C246.769 144.845 246.288 144.75 245.727 144.75C244.977 144.75 244.345 144.909 243.83 145.227C243.314 145.538 243.057 145.955 243.057 146.477C243.057 146.894 243.223 147.246 243.557 147.534C243.89 147.822 244.462 148.053 245.273 148.227L248.432 148.864C250.129 149.212 251.394 149.773 252.227 150.545C253.061 151.318 253.477 152.333 253.477 153.591C253.477 154.735 253.14 155.739 252.466 156.602C251.799 157.466 250.883 158.14 249.716 158.625C248.557 159.102 247.22 159.341 245.705 159.341C243.394 159.341 241.553 158.86 240.182 157.898C238.818 156.928 238.019 155.61 237.784 153.943L242.545 153.693C242.689 154.398 243.038 154.936 243.591 155.307C244.144 155.67 244.852 155.852 245.716 155.852C246.564 155.852 247.246 155.689 247.761 155.364C248.284 155.03 248.549 154.602 248.557 154.08C248.549 153.64 248.364 153.28 248 153C247.636 152.712 247.076 152.492 246.318 152.341L243.295 151.739C241.591 151.398 240.322 150.807 239.489 149.966C238.663 149.125 238.25 148.053 238.25 146.75C238.25 145.629 238.553 144.663 239.159 143.852C239.773 143.042 240.633 142.417 241.739 141.977C242.852 141.538 244.155 141.318 245.648 141.318C247.852 141.318 249.587 141.784 250.852 142.716C252.125 143.648 252.867 144.917 253.08 146.523ZM261.503 159.33C260.389 159.33 259.397 159.136 258.526 158.75C257.654 158.356 256.965 157.777 256.457 157.011C255.957 156.239 255.707 155.277 255.707 154.125C255.707 153.155 255.885 152.341 256.241 151.682C256.598 151.023 257.082 150.492 257.696 150.091C258.31 149.689 259.007 149.386 259.787 149.182C260.575 148.977 261.401 148.833 262.264 148.75C263.279 148.644 264.098 148.545 264.719 148.455C265.34 148.356 265.791 148.212 266.071 148.023C266.351 147.833 266.491 147.553 266.491 147.182V147.114C266.491 146.394 266.264 145.837 265.81 145.443C265.363 145.049 264.726 144.852 263.901 144.852C263.029 144.852 262.336 145.045 261.821 145.432C261.306 145.811 260.965 146.288 260.798 146.864L256.321 146.5C256.548 145.439 256.995 144.523 257.662 143.75C258.329 142.97 259.188 142.371 260.241 141.955C261.302 141.53 262.529 141.318 263.923 141.318C264.893 141.318 265.821 141.432 266.707 141.659C267.601 141.886 268.393 142.239 269.082 142.716C269.779 143.193 270.329 143.807 270.73 144.557C271.132 145.299 271.332 146.189 271.332 147.227V159H266.741V156.58H266.605C266.325 157.125 265.95 157.606 265.48 158.023C265.01 158.432 264.446 158.754 263.787 158.989C263.128 159.216 262.366 159.33 261.503 159.33ZM262.889 155.989C263.601 155.989 264.23 155.848 264.776 155.568C265.321 155.28 265.749 154.894 266.06 154.409C266.37 153.924 266.526 153.375 266.526 152.761V150.909C266.374 151.008 266.166 151.098 265.901 151.182C265.643 151.258 265.351 151.33 265.026 151.398C264.7 151.458 264.374 151.515 264.048 151.568C263.723 151.614 263.427 151.655 263.162 151.693C262.594 151.777 262.098 151.909 261.673 152.091C261.249 152.273 260.92 152.519 260.685 152.83C260.45 153.133 260.332 153.511 260.332 153.966C260.332 154.625 260.571 155.129 261.048 155.477C261.533 155.818 262.147 155.989 262.889 155.989ZM279.929 135.727V159H275.088V135.727H279.929ZM291.761 159.341C289.966 159.341 288.42 158.977 287.125 158.25C285.837 157.515 284.845 156.477 284.148 155.136C283.451 153.788 283.102 152.193 283.102 150.352C283.102 148.557 283.451 146.981 284.148 145.625C284.845 144.269 285.826 143.212 287.091 142.455C288.364 141.697 289.856 141.318 291.568 141.318C292.72 141.318 293.792 141.504 294.784 141.875C295.784 142.239 296.655 142.788 297.398 143.523C298.148 144.258 298.731 145.182 299.148 146.295C299.564 147.402 299.773 148.697 299.773 150.182V151.511H285.034V148.511H295.216C295.216 147.814 295.064 147.197 294.761 146.659C294.458 146.121 294.038 145.701 293.5 145.398C292.97 145.087 292.352 144.932 291.648 144.932C290.913 144.932 290.261 145.102 289.693 145.443C289.133 145.777 288.693 146.227 288.375 146.795C288.057 147.356 287.894 147.981 287.886 148.67V151.523C287.886 152.386 288.045 153.133 288.364 153.761C288.689 154.39 289.148 154.875 289.739 155.216C290.33 155.557 291.03 155.727 291.841 155.727C292.379 155.727 292.871 155.652 293.318 155.5C293.765 155.348 294.148 155.121 294.466 154.818C294.784 154.515 295.027 154.144 295.193 153.705L299.67 154C299.443 155.076 298.977 156.015 298.273 156.818C297.576 157.614 296.674 158.235 295.568 158.682C294.47 159.121 293.201 159.341 291.761 159.341Z" fill="white"/>
<path d="M12.2926 262.727V286H7.37216V267.398H7.2358L1.90625 270.739V266.375L7.66761 262.727H12.2926ZM26.9489 286.511C24.9943 286.504 23.3125 286.023 21.9034 285.068C20.5019 284.114 19.4223 282.731 18.6648 280.92C17.9148 279.11 17.5436 276.932 17.5511 274.386C17.5511 271.848 17.9261 269.686 18.6761 267.898C19.4337 266.11 20.5133 264.75 21.9148 263.818C23.3239 262.879 25.0019 262.409 26.9489 262.409C28.8958 262.409 30.5701 262.879 31.9716 263.818C33.3807 264.758 34.464 266.121 35.2216 267.909C35.9792 269.689 36.3542 271.848 36.3466 274.386C36.3466 276.939 35.9678 279.121 35.2102 280.932C34.4602 282.742 33.3845 284.125 31.983 285.08C30.5814 286.034 28.9034 286.511 26.9489 286.511ZM26.9489 282.432C28.2822 282.432 29.3466 281.761 30.142 280.42C30.9375 279.08 31.3314 277.068 31.3239 274.386C31.3239 272.621 31.142 271.152 30.7784 269.977C30.4223 268.803 29.9148 267.92 29.2557 267.33C28.6042 266.739 27.8352 266.443 26.9489 266.443C25.6231 266.443 24.5625 267.106 23.767 268.432C22.9716 269.758 22.5701 271.742 22.5625 274.386C22.5625 276.174 22.7405 277.667 23.0966 278.864C23.4602 280.053 23.9716 280.947 24.6307 281.545C25.2898 282.136 26.0625 282.432 26.9489 282.432ZM52.5938 281.636V280.409C52.5938 279.477 52.7907 278.621 53.1847 277.841C53.5862 277.053 54.1657 276.424 54.9233 275.955C55.6884 275.477 56.6203 275.239 57.7188 275.239C58.8324 275.239 59.768 275.473 60.5256 275.943C61.2907 276.413 61.8665 277.042 62.2528 277.83C62.6468 278.61 62.8438 279.47 62.8438 280.409V281.636C62.8438 282.568 62.6468 283.428 62.2528 284.216C61.8589 284.996 61.2794 285.621 60.5142 286.091C59.7491 286.568 58.8172 286.807 57.7188 286.807C56.6051 286.807 55.6695 286.568 54.9119 286.091C54.1544 285.621 53.5786 284.996 53.1847 284.216C52.7907 283.428 52.5938 282.568 52.5938 281.636ZM55.9006 280.409V281.636C55.9006 282.174 56.0294 282.682 56.2869 283.159C56.5521 283.636 57.0294 283.875 57.7188 283.875C58.4081 283.875 58.8778 283.64 59.1278 283.17C59.3854 282.701 59.5142 282.189 59.5142 281.636V280.409C59.5142 279.856 59.393 279.341 59.1506 278.864C58.9081 278.386 58.4309 278.148 57.7188 278.148C57.0369 278.148 56.5634 278.386 56.2983 278.864C56.0331 279.341 55.9006 279.856 55.9006 280.409ZM40.6506 268.318V267.091C40.6506 266.152 40.8513 265.292 41.2528 264.511C41.6544 263.723 42.2339 263.095 42.9915 262.625C43.7566 262.155 44.6809 261.92 45.7642 261.92C46.8854 261.92 47.8248 262.155 48.5824 262.625C49.34 263.095 49.9157 263.723 50.3097 264.511C50.7036 265.292 50.9006 266.152 50.9006 267.091V268.318C50.9006 269.258 50.6998 270.117 50.2983 270.898C49.9044 271.678 49.3248 272.303 48.5597 272.773C47.8021 273.235 46.8703 273.466 45.7642 273.466C44.6581 273.466 43.7225 273.231 42.9574 272.761C42.1998 272.284 41.6241 271.659 41.2301 270.886C40.8438 270.106 40.6506 269.25 40.6506 268.318ZM43.9801 267.091V268.318C43.9801 268.871 44.1089 269.383 44.3665 269.852C44.6316 270.322 45.0975 270.557 45.7642 270.557C46.4612 270.557 46.9347 270.322 47.1847 269.852C47.4422 269.383 47.571 268.871 47.571 268.318V267.091C47.571 266.538 47.4498 266.023 47.2074 265.545C46.965 265.068 46.4839 264.83 45.7642 264.83C45.09 264.83 44.6241 265.072 44.3665 265.557C44.1089 266.042 43.9801 266.553 43.9801 267.091ZM42.1506 286L58.1506 262.727H61.1278L45.1278 286H42.1506ZM70.2301 283.295C69.4801 283.295 68.8362 283.03 68.2983 282.5C67.768 281.97 67.5028 281.326 67.5028 280.568C67.5028 279.826 67.768 279.189 68.2983 278.659C68.8362 278.129 69.4801 277.864 70.2301 277.864C70.9574 277.864 71.5938 278.129 72.1392 278.659C72.6847 279.189 72.9574 279.826 72.9574 280.568C72.9574 281.068 72.8286 281.527 72.571 281.943C72.321 282.352 71.9915 282.682 71.5824 282.932C71.1733 283.174 70.7225 283.295 70.2301 283.295ZM70.2301 271.875C69.4801 271.875 68.8362 271.61 68.2983 271.08C67.768 270.549 67.5028 269.905 67.5028 269.148C67.5028 268.405 67.768 267.773 68.2983 267.25C68.8362 266.72 69.4801 266.455 70.2301 266.455C70.9574 266.455 71.5938 266.72 72.1392 267.25C72.6847 267.773 72.9574 268.405 72.9574 269.148C72.9574 269.655 72.8286 270.117 72.571 270.534C72.321 270.943 71.9915 271.269 71.5824 271.511C71.1733 271.754 70.7225 271.875 70.2301 271.875ZM88.4403 286H83.1676L91.2017 262.727H97.5426L105.565 286H100.293L94.4631 268.045H94.2812L88.4403 286ZM88.1108 276.852H100.565V280.693H88.1108V276.852ZM113.895 286.284C112.569 286.284 111.368 285.943 110.293 285.261C109.224 284.572 108.376 283.561 107.747 282.227C107.126 280.886 106.815 279.242 106.815 277.295C106.815 275.295 107.137 273.633 107.781 272.307C108.425 270.973 109.281 269.977 110.349 269.318C111.425 268.652 112.603 268.318 113.884 268.318C114.861 268.318 115.675 268.485 116.327 268.818C116.986 269.144 117.516 269.553 117.918 270.045C118.327 270.53 118.637 271.008 118.849 271.477H118.997V262.727H123.827V286H119.054V283.205H118.849C118.622 283.689 118.3 284.17 117.884 284.648C117.474 285.117 116.94 285.508 116.281 285.818C115.63 286.129 114.834 286.284 113.895 286.284ZM115.429 282.432C116.209 282.432 116.868 282.22 117.406 281.795C117.952 281.364 118.368 280.761 118.656 279.989C118.952 279.216 119.099 278.311 119.099 277.273C119.099 276.235 118.955 275.333 118.668 274.568C118.38 273.803 117.963 273.212 117.418 272.795C116.872 272.379 116.209 272.17 115.429 272.17C114.634 272.17 113.963 272.386 113.418 272.818C112.872 273.25 112.459 273.848 112.179 274.614C111.899 275.379 111.759 276.265 111.759 277.273C111.759 278.288 111.899 279.186 112.179 279.966C112.467 280.739 112.88 281.345 113.418 281.784C113.963 282.216 114.634 282.432 115.429 282.432ZM144.08 268.545L137.977 286H132.523L126.42 268.545H131.534L135.159 281.034H135.341L138.955 268.545H144.08ZM146.557 286V268.545H151.398V286H146.557ZM148.989 266.295C148.269 266.295 147.652 266.057 147.136 265.58C146.629 265.095 146.375 264.515 146.375 263.841C146.375 263.174 146.629 262.602 147.136 262.125C147.652 261.64 148.269 261.398 148.989 261.398C149.708 261.398 150.322 261.64 150.83 262.125C151.345 262.602 151.602 263.174 151.602 263.841C151.602 264.515 151.345 265.095 150.83 265.58C150.322 266.057 149.708 266.295 148.989 266.295ZM169.798 273.523L165.366 273.795C165.291 273.417 165.128 273.076 164.878 272.773C164.628 272.462 164.298 272.216 163.889 272.034C163.488 271.845 163.007 271.75 162.446 271.75C161.696 271.75 161.063 271.909 160.548 272.227C160.033 272.538 159.776 272.955 159.776 273.477C159.776 273.894 159.942 274.246 160.276 274.534C160.609 274.822 161.181 275.053 161.991 275.227L165.151 275.864C166.848 276.212 168.113 276.773 168.946 277.545C169.779 278.318 170.196 279.333 170.196 280.591C170.196 281.735 169.859 282.739 169.185 283.602C168.518 284.466 167.601 285.14 166.435 285.625C165.276 286.102 163.938 286.341 162.423 286.341C160.113 286.341 158.272 285.86 156.901 284.898C155.537 283.928 154.738 282.61 154.503 280.943L159.264 280.693C159.408 281.398 159.757 281.936 160.31 282.307C160.863 282.67 161.571 282.852 162.435 282.852C163.283 282.852 163.965 282.689 164.48 282.364C165.003 282.03 165.268 281.602 165.276 281.08C165.268 280.64 165.082 280.28 164.719 280C164.355 279.712 163.795 279.492 163.037 279.341L160.014 278.739C158.31 278.398 157.041 277.807 156.207 276.966C155.382 276.125 154.969 275.053 154.969 273.75C154.969 272.629 155.272 271.663 155.878 270.852C156.491 270.042 157.351 269.417 158.457 268.977C159.571 268.538 160.874 268.318 162.366 268.318C164.571 268.318 166.306 268.784 167.571 269.716C168.844 270.648 169.586 271.917 169.798 273.523ZM181.131 286.341C179.366 286.341 177.839 285.966 176.551 285.216C175.271 284.458 174.282 283.405 173.585 282.057C172.888 280.701 172.54 279.129 172.54 277.341C172.54 275.538 172.888 273.962 173.585 272.614C174.282 271.258 175.271 270.205 176.551 269.455C177.839 268.697 179.366 268.318 181.131 268.318C182.896 268.318 184.419 268.697 185.699 269.455C186.987 270.205 187.979 271.258 188.676 272.614C189.373 273.962 189.722 275.538 189.722 277.341C189.722 279.129 189.373 280.701 188.676 282.057C187.979 283.405 186.987 284.458 185.699 285.216C184.419 285.966 182.896 286.341 181.131 286.341ZM181.153 282.591C181.956 282.591 182.627 282.364 183.165 281.909C183.703 281.447 184.108 280.818 184.381 280.023C184.661 279.227 184.801 278.322 184.801 277.307C184.801 276.292 184.661 275.386 184.381 274.591C184.108 273.795 183.703 273.167 183.165 272.705C182.627 272.242 181.956 272.011 181.153 272.011C180.343 272.011 179.661 272.242 179.108 272.705C178.563 273.167 178.15 273.795 177.869 274.591C177.597 275.386 177.46 276.292 177.46 277.307C177.46 278.322 177.597 279.227 177.869 280.023C178.15 280.818 178.563 281.447 179.108 281.909C179.661 282.364 180.343 282.591 181.153 282.591ZM192.869 286V268.545H197.562V271.591H197.744C198.063 270.508 198.597 269.689 199.347 269.136C200.097 268.576 200.96 268.295 201.938 268.295C202.18 268.295 202.441 268.311 202.722 268.341C203.002 268.371 203.248 268.413 203.46 268.466V272.761C203.233 272.693 202.919 272.633 202.517 272.58C202.116 272.527 201.748 272.5 201.415 272.5C200.703 272.5 200.066 272.655 199.506 272.966C198.953 273.269 198.513 273.693 198.188 274.239C197.869 274.784 197.71 275.413 197.71 276.125V286H192.869ZM220.486 273.523L216.054 273.795C215.978 273.417 215.815 273.076 215.565 272.773C215.315 272.462 214.986 272.216 214.577 272.034C214.175 271.845 213.694 271.75 213.134 271.75C212.384 271.75 211.751 271.909 211.236 272.227C210.721 272.538 210.463 272.955 210.463 273.477C210.463 273.894 210.63 274.246 210.963 274.534C211.296 274.822 211.868 275.053 212.679 275.227L215.838 275.864C217.535 276.212 218.8 276.773 219.634 277.545C220.467 278.318 220.884 279.333 220.884 280.591C220.884 281.735 220.546 282.739 219.872 283.602C219.205 284.466 218.289 285.14 217.122 285.625C215.963 286.102 214.626 286.341 213.111 286.341C210.8 286.341 208.959 285.86 207.588 284.898C206.224 283.928 205.425 282.61 205.19 280.943L209.952 280.693C210.096 281.398 210.444 281.936 210.997 282.307C211.55 282.67 212.259 282.852 213.122 282.852C213.971 282.852 214.652 282.689 215.168 282.364C215.69 282.03 215.955 281.602 215.963 281.08C215.955 280.64 215.77 280.28 215.406 280C215.043 279.712 214.482 279.492 213.724 279.341L210.702 278.739C208.997 278.398 207.728 277.807 206.895 276.966C206.069 276.125 205.656 275.053 205.656 273.75C205.656 272.629 205.959 271.663 206.565 270.852C207.179 270.042 208.039 269.417 209.145 268.977C210.259 268.538 211.562 268.318 213.054 268.318C215.259 268.318 216.993 268.784 218.259 269.716C219.531 270.648 220.274 271.917 220.486 273.523Z" fill="white"/>
<path d="M66.1676 481.727V505H61.2472V486.398H61.1108L55.7812 489.739V485.375L61.5426 481.727H66.1676ZM80.8239 505.511C78.8693 505.504 77.1875 505.023 75.7784 504.068C74.3769 503.114 73.2973 501.731 72.5398 499.92C71.7898 498.11 71.4186 495.932 71.4261 493.386C71.4261 490.848 71.8011 488.686 72.5511 486.898C73.3087 485.11 74.3883 483.75 75.7898 482.818C77.1989 481.879 78.8769 481.409 80.8239 481.409C82.7708 481.409 84.4451 481.879 85.8466 482.818C87.2557 483.758 88.339 485.121 89.0966 486.909C89.8542 488.689 90.2292 490.848 90.2216 493.386C90.2216 495.939 89.8428 498.121 89.0852 499.932C88.3352 501.742 87.2595 503.125 85.858 504.08C84.4564 505.034 82.7784 505.511 80.8239 505.511ZM80.8239 501.432C82.1572 501.432 83.2216 500.761 84.017 499.42C84.8125 498.08 85.2064 496.068 85.1989 493.386C85.1989 491.621 85.017 490.152 84.6534 488.977C84.2973 487.803 83.7898 486.92 83.1307 486.33C82.4792 485.739 81.7102 485.443 80.8239 485.443C79.4981 485.443 78.4375 486.106 77.642 487.432C76.8466 488.758 76.4451 490.742 76.4375 493.386C76.4375 495.174 76.6155 496.667 76.9716 497.864C77.3352 499.053 77.8466 499.947 78.5057 500.545C79.1648 501.136 79.9375 501.432 80.8239 501.432ZM106.469 500.636V499.409C106.469 498.477 106.666 497.621 107.06 496.841C107.461 496.053 108.041 495.424 108.798 494.955C109.563 494.477 110.495 494.239 111.594 494.239C112.707 494.239 113.643 494.473 114.401 494.943C115.166 495.413 115.741 496.042 116.128 496.83C116.522 497.61 116.719 498.47 116.719 499.409V500.636C116.719 501.568 116.522 502.428 116.128 503.216C115.734 503.996 115.154 504.621 114.389 505.091C113.624 505.568 112.692 505.807 111.594 505.807C110.48 505.807 109.545 505.568 108.787 505.091C108.029 504.621 107.454 503.996 107.06 503.216C106.666 502.428 106.469 501.568 106.469 500.636ZM109.776 499.409V500.636C109.776 501.174 109.904 501.682 110.162 502.159C110.427 502.636 110.904 502.875 111.594 502.875C112.283 502.875 112.753 502.64 113.003 502.17C113.26 501.701 113.389 501.189 113.389 500.636V499.409C113.389 498.856 113.268 498.341 113.026 497.864C112.783 497.386 112.306 497.148 111.594 497.148C110.912 497.148 110.438 497.386 110.173 497.864C109.908 498.341 109.776 498.856 109.776 499.409ZM94.5256 487.318V486.091C94.5256 485.152 94.7263 484.292 95.1278 483.511C95.5294 482.723 96.1089 482.095 96.8665 481.625C97.6316 481.155 98.5559 480.92 99.6392 480.92C100.76 480.92 101.7 481.155 102.457 481.625C103.215 482.095 103.791 482.723 104.185 483.511C104.579 484.292 104.776 485.152 104.776 486.091V487.318C104.776 488.258 104.575 489.117 104.173 489.898C103.779 490.678 103.2 491.303 102.435 491.773C101.677 492.235 100.745 492.466 99.6392 492.466C98.5331 492.466 97.5975 492.231 96.8324 491.761C96.0748 491.284 95.4991 490.659 95.1051 489.886C94.7188 489.106 94.5256 488.25 94.5256 487.318ZM97.8551 486.091V487.318C97.8551 487.871 97.9839 488.383 98.2415 488.852C98.5066 489.322 98.9725 489.557 99.6392 489.557C100.336 489.557 100.81 489.322 101.06 488.852C101.317 488.383 101.446 487.871 101.446 487.318V486.091C101.446 485.538 101.325 485.023 101.082 484.545C100.84 484.068 100.359 483.83 99.6392 483.83C98.965 483.83 98.4991 484.072 98.2415 484.557C97.9839 485.042 97.8551 485.553 97.8551 486.091ZM96.0256 505L112.026 481.727H115.003L99.0028 505H96.0256ZM124.105 502.295C123.355 502.295 122.711 502.03 122.173 501.5C121.643 500.97 121.378 500.326 121.378 499.568C121.378 498.826 121.643 498.189 122.173 497.659C122.711 497.129 123.355 496.864 124.105 496.864C124.832 496.864 125.469 497.129 126.014 497.659C126.56 498.189 126.832 498.826 126.832 499.568C126.832 500.068 126.704 500.527 126.446 500.943C126.196 501.352 125.866 501.682 125.457 501.932C125.048 502.174 124.598 502.295 124.105 502.295ZM124.105 490.875C123.355 490.875 122.711 490.61 122.173 490.08C121.643 489.549 121.378 488.905 121.378 488.148C121.378 487.405 121.643 486.773 122.173 486.25C122.711 485.72 123.355 485.455 124.105 485.455C124.832 485.455 125.469 485.72 126.014 486.25C126.56 486.773 126.832 487.405 126.832 488.148C126.832 488.655 126.704 489.117 126.446 489.534C126.196 489.943 125.866 490.269 125.457 490.511C125.048 490.754 124.598 490.875 124.105 490.875ZM137.418 485.784V481.727H156.531V485.784H149.406V505H144.543V485.784H137.418ZM165.011 505.341C163.216 505.341 161.67 504.977 160.375 504.25C159.087 503.515 158.095 502.477 157.398 501.136C156.701 499.788 156.352 498.193 156.352 496.352C156.352 494.557 156.701 492.981 157.398 491.625C158.095 490.269 159.076 489.212 160.341 488.455C161.614 487.697 163.106 487.318 164.818 487.318C165.97 487.318 167.042 487.504 168.034 487.875C169.034 488.239 169.905 488.788 170.648 489.523C171.398 490.258 171.981 491.182 172.398 492.295C172.814 493.402 173.023 494.697 173.023 496.182V497.511H158.284V494.511H168.466C168.466 493.814 168.314 493.197 168.011 492.659C167.708 492.121 167.288 491.701 166.75 491.398C166.22 491.087 165.602 490.932 164.898 490.932C164.163 490.932 163.511 491.102 162.943 491.443C162.383 491.777 161.943 492.227 161.625 492.795C161.307 493.356 161.144 493.981 161.136 494.67V497.523C161.136 498.386 161.295 499.133 161.614 499.761C161.939 500.39 162.398 500.875 162.989 501.216C163.58 501.557 164.28 501.727 165.091 501.727C165.629 501.727 166.121 501.652 166.568 501.5C167.015 501.348 167.398 501.121 167.716 500.818C168.034 500.515 168.277 500.144 168.443 499.705L172.92 500C172.693 501.076 172.227 502.015 171.523 502.818C170.826 503.614 169.924 504.235 168.818 504.682C167.72 505.121 166.451 505.341 165.011 505.341ZM181.159 505.33C180.045 505.33 179.053 505.136 178.182 504.75C177.311 504.356 176.621 503.777 176.114 503.011C175.614 502.239 175.364 501.277 175.364 500.125C175.364 499.155 175.542 498.341 175.898 497.682C176.254 497.023 176.739 496.492 177.352 496.091C177.966 495.689 178.663 495.386 179.443 495.182C180.231 494.977 181.057 494.833 181.92 494.75C182.936 494.644 183.754 494.545 184.375 494.455C184.996 494.356 185.447 494.212 185.727 494.023C186.008 493.833 186.148 493.553 186.148 493.182V493.114C186.148 492.394 185.92 491.837 185.466 491.443C185.019 491.049 184.383 490.852 183.557 490.852C182.686 490.852 181.992 491.045 181.477 491.432C180.962 491.811 180.621 492.288 180.455 492.864L175.977 492.5C176.205 491.439 176.652 490.523 177.318 489.75C177.985 488.97 178.845 488.371 179.898 487.955C180.958 487.53 182.186 487.318 183.58 487.318C184.549 487.318 185.477 487.432 186.364 487.659C187.258 487.886 188.049 488.239 188.739 488.716C189.436 489.193 189.985 489.807 190.386 490.557C190.788 491.299 190.989 492.189 190.989 493.227V505H186.398V502.58H186.261C185.981 503.125 185.606 503.606 185.136 504.023C184.667 504.432 184.102 504.754 183.443 504.989C182.784 505.216 182.023 505.33 181.159 505.33ZM182.545 501.989C183.258 501.989 183.886 501.848 184.432 501.568C184.977 501.28 185.405 500.894 185.716 500.409C186.027 499.924 186.182 499.375 186.182 498.761V496.909C186.03 497.008 185.822 497.098 185.557 497.182C185.299 497.258 185.008 497.33 184.682 497.398C184.356 497.458 184.03 497.515 183.705 497.568C183.379 497.614 183.083 497.655 182.818 497.693C182.25 497.777 181.754 497.909 181.33 498.091C180.905 498.273 180.576 498.519 180.341 498.83C180.106 499.133 179.989 499.511 179.989 499.966C179.989 500.625 180.227 501.129 180.705 501.477C181.189 501.818 181.803 501.989 182.545 501.989ZM194.744 505V487.545H199.358V490.625H199.562C199.926 489.602 200.532 488.795 201.381 488.205C202.229 487.614 203.244 487.318 204.426 487.318C205.623 487.318 206.642 487.617 207.483 488.216C208.324 488.807 208.884 489.61 209.165 490.625H209.347C209.703 489.625 210.347 488.826 211.278 488.227C212.218 487.621 213.328 487.318 214.608 487.318C216.237 487.318 217.559 487.837 218.574 488.875C219.597 489.905 220.108 491.367 220.108 493.261V505H215.278V494.216C215.278 493.246 215.021 492.519 214.506 492.034C213.991 491.549 213.347 491.307 212.574 491.307C211.695 491.307 211.009 491.587 210.517 492.148C210.025 492.701 209.778 493.432 209.778 494.341V505H205.085V494.114C205.085 493.258 204.839 492.576 204.347 492.068C203.862 491.561 203.222 491.307 202.426 491.307C201.888 491.307 201.403 491.443 200.972 491.716C200.547 491.981 200.21 492.356 199.96 492.841C199.71 493.318 199.585 493.879 199.585 494.523V505H194.744Z" fill="white"/>
<path d="M226.48 752V748.455L234.764 740.784C235.469 740.102 236.06 739.489 236.537 738.943C237.022 738.398 237.389 737.864 237.639 737.341C237.889 736.811 238.014 736.239 238.014 735.625C238.014 734.943 237.859 734.356 237.548 733.864C237.238 733.364 236.813 732.981 236.276 732.716C235.738 732.443 235.128 732.307 234.446 732.307C233.734 732.307 233.113 732.451 232.582 732.739C232.052 733.027 231.643 733.439 231.355 733.977C231.067 734.515 230.923 735.155 230.923 735.898H226.253C226.253 734.375 226.598 733.053 227.287 731.932C227.976 730.811 228.942 729.943 230.185 729.33C231.427 728.716 232.859 728.409 234.48 728.409C236.147 728.409 237.598 728.705 238.832 729.295C240.075 729.879 241.041 730.689 241.73 731.727C242.42 732.765 242.764 733.955 242.764 735.295C242.764 736.174 242.59 737.042 242.241 737.898C241.901 738.754 241.291 739.705 240.412 740.75C239.533 741.788 238.295 743.034 236.696 744.489L233.298 747.818V747.977H243.071V752H226.48ZM255.761 752.511C253.807 752.504 252.125 752.023 250.716 751.068C249.314 750.114 248.235 748.731 247.477 746.92C246.727 745.11 246.356 742.932 246.364 740.386C246.364 737.848 246.739 735.686 247.489 733.898C248.246 732.11 249.326 730.75 250.727 729.818C252.136 728.879 253.814 728.409 255.761 728.409C257.708 728.409 259.383 728.879 260.784 729.818C262.193 730.758 263.277 732.121 264.034 733.909C264.792 735.689 265.167 737.848 265.159 740.386C265.159 742.939 264.78 745.121 264.023 746.932C263.273 748.742 262.197 750.125 260.795 751.08C259.394 752.034 257.716 752.511 255.761 752.511ZM255.761 748.432C257.095 748.432 258.159 747.761 258.955 746.42C259.75 745.08 260.144 743.068 260.136 740.386C260.136 738.621 259.955 737.152 259.591 735.977C259.235 734.803 258.727 733.92 258.068 733.33C257.417 732.739 256.648 732.443 255.761 732.443C254.436 732.443 253.375 733.106 252.58 734.432C251.784 735.758 251.383 737.742 251.375 740.386C251.375 742.174 251.553 743.667 251.909 744.864C252.273 746.053 252.784 746.947 253.443 747.545C254.102 748.136 254.875 748.432 255.761 748.432ZM281.406 747.636V746.409C281.406 745.477 281.603 744.621 281.997 743.841C282.399 743.053 282.978 742.424 283.736 741.955C284.501 741.477 285.433 741.239 286.531 741.239C287.645 741.239 288.58 741.473 289.338 741.943C290.103 742.413 290.679 743.042 291.065 743.83C291.459 744.61 291.656 745.47 291.656 746.409V747.636C291.656 748.568 291.459 749.428 291.065 750.216C290.671 750.996 290.092 751.621 289.327 752.091C288.562 752.568 287.63 752.807 286.531 752.807C285.418 752.807 284.482 752.568 283.724 752.091C282.967 751.621 282.391 750.996 281.997 750.216C281.603 749.428 281.406 748.568 281.406 747.636ZM284.713 746.409V747.636C284.713 748.174 284.842 748.682 285.099 749.159C285.365 749.636 285.842 749.875 286.531 749.875C287.221 749.875 287.69 749.64 287.94 749.17C288.198 748.701 288.327 748.189 288.327 747.636V746.409C288.327 745.856 288.205 745.341 287.963 744.864C287.721 744.386 287.243 744.148 286.531 744.148C285.849 744.148 285.376 744.386 285.111 744.864C284.846 745.341 284.713 745.856 284.713 746.409ZM269.463 734.318V733.091C269.463 732.152 269.664 731.292 270.065 730.511C270.467 729.723 271.046 729.095 271.804 728.625C272.569 728.155 273.493 727.92 274.577 727.92C275.698 727.92 276.637 728.155 277.395 728.625C278.152 729.095 278.728 729.723 279.122 730.511C279.516 731.292 279.713 732.152 279.713 733.091V734.318C279.713 735.258 279.512 736.117 279.111 736.898C278.717 737.678 278.137 738.303 277.372 738.773C276.615 739.235 275.683 739.466 274.577 739.466C273.471 739.466 272.535 739.231 271.77 738.761C271.012 738.284 270.437 737.659 270.043 736.886C269.656 736.106 269.463 735.25 269.463 734.318ZM272.793 733.091V734.318C272.793 734.871 272.921 735.383 273.179 735.852C273.444 736.322 273.91 736.557 274.577 736.557C275.274 736.557 275.747 736.322 275.997 735.852C276.255 735.383 276.384 734.871 276.384 734.318V733.091C276.384 732.538 276.262 732.023 276.02 731.545C275.777 731.068 275.296 730.83 274.577 730.83C273.902 730.83 273.437 731.072 273.179 731.557C272.921 732.042 272.793 732.553 272.793 733.091ZM270.963 752L286.963 728.727H289.94L273.94 752H270.963ZM299.043 749.295C298.293 749.295 297.649 749.03 297.111 748.5C296.58 747.97 296.315 747.326 296.315 746.568C296.315 745.826 296.58 745.189 297.111 744.659C297.649 744.129 298.293 743.864 299.043 743.864C299.77 743.864 300.406 744.129 300.952 744.659C301.497 745.189 301.77 745.826 301.77 746.568C301.77 747.068 301.641 747.527 301.384 747.943C301.134 748.352 300.804 748.682 300.395 748.932C299.986 749.174 299.535 749.295 299.043 749.295ZM299.043 737.875C298.293 737.875 297.649 737.61 297.111 737.08C296.58 736.549 296.315 735.905 296.315 735.148C296.315 734.405 296.58 733.773 297.111 733.25C297.649 732.72 298.293 732.455 299.043 732.455C299.77 732.455 300.406 732.72 300.952 733.25C301.497 733.773 301.77 734.405 301.77 735.148C301.77 735.655 301.641 736.117 301.384 736.534C301.134 736.943 300.804 737.269 300.395 737.511C299.986 737.754 299.535 737.875 299.043 737.875ZM312.355 732.784V728.727H331.469V732.784H324.344V752H319.48V732.784H312.355ZM332.713 752V734.545H337.406V737.591H337.588C337.906 736.508 338.44 735.689 339.19 735.136C339.94 734.576 340.804 734.295 341.781 734.295C342.024 734.295 342.285 734.311 342.565 734.341C342.846 734.371 343.092 734.413 343.304 734.466V738.761C343.077 738.693 342.762 738.633 342.361 738.58C341.959 738.527 341.592 738.5 341.259 738.5C340.546 738.5 339.91 738.655 339.349 738.966C338.796 739.269 338.357 739.693 338.031 740.239C337.713 740.784 337.554 741.413 337.554 742.125V752H332.713ZM352.949 752.341C351.153 752.341 349.608 751.977 348.312 751.25C347.025 750.515 346.032 749.477 345.335 748.136C344.638 746.788 344.29 745.193 344.29 743.352C344.29 741.557 344.638 739.981 345.335 738.625C346.032 737.269 347.013 736.212 348.278 735.455C349.551 734.697 351.044 734.318 352.756 734.318C353.907 734.318 354.979 734.504 355.972 734.875C356.972 735.239 357.843 735.788 358.585 736.523C359.335 737.258 359.919 738.182 360.335 739.295C360.752 740.402 360.96 741.697 360.96 743.182V744.511H346.222V741.511H356.403C356.403 740.814 356.252 740.197 355.949 739.659C355.646 739.121 355.225 738.701 354.688 738.398C354.157 738.087 353.54 737.932 352.835 737.932C352.1 737.932 351.449 738.102 350.881 738.443C350.32 738.777 349.881 739.227 349.562 739.795C349.244 740.356 349.081 740.981 349.074 741.67V744.523C349.074 745.386 349.233 746.133 349.551 746.761C349.877 747.39 350.335 747.875 350.926 748.216C351.517 748.557 352.218 748.727 353.028 748.727C353.566 748.727 354.059 748.652 354.506 748.5C354.953 748.348 355.335 748.121 355.653 747.818C355.972 747.515 356.214 747.144 356.381 746.705L360.858 747C360.631 748.076 360.165 749.015 359.46 749.818C358.763 750.614 357.862 751.235 356.756 751.682C355.657 752.121 354.388 752.341 352.949 752.341ZM369.097 752.33C367.983 752.33 366.991 752.136 366.119 751.75C365.248 751.356 364.559 750.777 364.051 750.011C363.551 749.239 363.301 748.277 363.301 747.125C363.301 746.155 363.479 745.341 363.835 744.682C364.191 744.023 364.676 743.492 365.29 743.091C365.903 742.689 366.6 742.386 367.381 742.182C368.169 741.977 368.994 741.833 369.858 741.75C370.873 741.644 371.691 741.545 372.312 741.455C372.934 741.356 373.384 741.212 373.665 741.023C373.945 740.833 374.085 740.553 374.085 740.182V740.114C374.085 739.394 373.858 738.837 373.403 738.443C372.956 738.049 372.32 737.852 371.494 737.852C370.623 737.852 369.93 738.045 369.415 738.432C368.9 738.811 368.559 739.288 368.392 739.864L363.915 739.5C364.142 738.439 364.589 737.523 365.256 736.75C365.922 735.97 366.782 735.371 367.835 734.955C368.896 734.53 370.123 734.318 371.517 734.318C372.487 734.318 373.415 734.432 374.301 734.659C375.195 734.886 375.987 735.239 376.676 735.716C377.373 736.193 377.922 736.807 378.324 737.557C378.725 738.299 378.926 739.189 378.926 740.227V752H374.335V749.58H374.199C373.919 750.125 373.544 750.606 373.074 751.023C372.604 751.432 372.04 751.754 371.381 751.989C370.722 752.216 369.96 752.33 369.097 752.33ZM370.483 748.989C371.195 748.989 371.824 748.848 372.369 748.568C372.915 748.28 373.343 747.894 373.653 747.409C373.964 746.924 374.119 746.375 374.119 745.761V743.909C373.968 744.008 373.759 744.098 373.494 744.182C373.237 744.258 372.945 744.33 372.619 744.398C372.294 744.458 371.968 744.515 371.642 744.568C371.316 744.614 371.021 744.655 370.756 744.693C370.188 744.777 369.691 744.909 369.267 745.091C368.843 745.273 368.513 745.519 368.278 745.83C368.044 746.133 367.926 746.511 367.926 746.966C367.926 747.625 368.165 748.129 368.642 748.477C369.127 748.818 369.741 748.989 370.483 748.989ZM397.205 739.523L392.773 739.795C392.697 739.417 392.534 739.076 392.284 738.773C392.034 738.462 391.705 738.216 391.295 738.034C390.894 737.845 390.413 737.75 389.852 737.75C389.102 737.75 388.47 737.909 387.955 738.227C387.439 738.538 387.182 738.955 387.182 739.477C387.182 739.894 387.348 740.246 387.682 740.534C388.015 740.822 388.587 741.053 389.398 741.227L392.557 741.864C394.254 742.212 395.519 742.773 396.352 743.545C397.186 744.318 397.602 745.333 397.602 746.591C397.602 747.735 397.265 748.739 396.591 749.602C395.924 750.466 395.008 751.14 393.841 751.625C392.682 752.102 391.345 752.341 389.83 752.341C387.519 752.341 385.678 751.86 384.307 750.898C382.943 749.928 382.144 748.61 381.909 746.943L386.67 746.693C386.814 747.398 387.163 747.936 387.716 748.307C388.269 748.67 388.977 748.852 389.841 748.852C390.689 748.852 391.371 748.689 391.886 748.364C392.409 748.03 392.674 747.602 392.682 747.08C392.674 746.64 392.489 746.28 392.125 746C391.761 745.712 391.201 745.492 390.443 745.341L387.42 744.739C385.716 744.398 384.447 743.807 383.614 742.966C382.788 742.125 382.375 741.053 382.375 739.75C382.375 738.629 382.678 737.663 383.284 736.852C383.898 736.042 384.758 735.417 385.864 734.977C386.977 734.538 388.28 734.318 389.773 734.318C391.977 734.318 393.712 734.784 394.977 735.716C396.25 736.648 396.992 737.917 397.205 739.523ZM411.844 744.568V734.545H416.685V752H412.037V748.83H411.855C411.461 749.852 410.806 750.674 409.889 751.295C408.98 751.917 407.87 752.227 406.56 752.227C405.393 752.227 404.366 751.962 403.48 751.432C402.594 750.902 401.901 750.148 401.401 749.17C400.908 748.193 400.658 747.023 400.651 745.659V734.545H405.491V744.795C405.499 745.826 405.776 746.64 406.321 747.239C406.866 747.837 407.598 748.136 408.514 748.136C409.098 748.136 409.643 748.004 410.151 747.739C410.658 747.466 411.067 747.064 411.378 746.534C411.696 746.004 411.851 745.348 411.844 744.568ZM420.557 752V734.545H425.25V737.591H425.432C425.75 736.508 426.284 735.689 427.034 735.136C427.784 734.576 428.648 734.295 429.625 734.295C429.867 734.295 430.129 734.311 430.409 734.341C430.689 734.371 430.936 734.413 431.148 734.466V738.761C430.92 738.693 430.606 738.633 430.205 738.58C429.803 738.527 429.436 738.5 429.102 738.5C428.39 738.5 427.754 738.655 427.193 738.966C426.64 739.269 426.201 739.693 425.875 740.239C425.557 740.784 425.398 741.413 425.398 742.125V752H420.557ZM437.17 758.545C436.557 758.545 435.981 758.496 435.443 758.398C434.913 758.307 434.473 758.189 434.125 758.045L435.216 754.432C435.784 754.606 436.295 754.701 436.75 754.716C437.212 754.731 437.61 754.625 437.943 754.398C438.284 754.17 438.561 753.784 438.773 753.239L439.057 752.5L432.795 734.545H437.886L441.5 747.364H441.682L445.33 734.545H450.455L443.67 753.886C443.345 754.826 442.902 755.644 442.341 756.341C441.788 757.045 441.087 757.587 440.239 757.966C439.39 758.352 438.367 758.545 437.17 758.545Z" fill="white"/>
</svg>
