<?xml version="1.0" encoding="utf-8"?>
<!-- Generator: Adobe Illustrator 25.2.2, SVG Export Plug-In . SVG Version: 6.00 Build 0)  -->
<svg version="1.1" id="Calque_1" xmlns="http://www.w3.org/2000/svg" xmlns:xlink="http://www.w3.org/1999/xlink" x="0px" y="0px"
	 viewBox="0 0 116.89 97.46" style="enable-background:new 0 0 116.89 97.46;" xml:space="preserve">
<style type="text/css">
	.st0{fill:#FFFFFF;}
</style>
<path class="st0" d="M115.65,1.17c-0.9-0.78-1.77-1.17-2.63-1.17c-0.46,0-37.2,13.65-110.21,40.95C0.94,41.65,0,42.93,0,44.81
	c0.24,1.87,1.16,3.05,2.81,3.51l26.67,8.3l10.76,32.53c0.7,1.8,2.1,2.7,4.21,2.7c0.94,0,1.84-0.36,2.7-1.06l15.21-14.27L89.5,96.4
	c1.01,0.7,2.1,1.06,3.27,1.06c3.04,0,4.88-1.52,5.51-4.57l18.6-88.68C116.96,2.97,116.55,1.95,115.65,1.17z M95.88,18.43
	c-0.04,0.2-16.76,15.34-50.13,45.45l-1.64,17.09l-8.19-26.79c38.76-24.81,58.26-37.21,58.5-37.21c1.02,0,1.52,0.36,1.52,1.06
	C95.94,18.1,95.91,18.23,95.88,18.43z"/>
</svg>
