<?xml version="1.0" encoding="utf-8"?>
<!-- Generator: Adobe Illustrator 25.2.2, SVG Export Plug-In . SVG Version: 6.00 Build 0)  -->
<svg version="1.1" id="Layer_1" xmlns="http://www.w3.org/2000/svg" xmlns:xlink="http://www.w3.org/1999/xlink" x="0px" y="0px"
	 viewBox="0 0 1074.67 1069.33" style="enable-background:new 0 0 1074.67 1069.33;" xml:space="preserve">
<style type="text/css">
	.st0{fill:#FFFFFF;}
</style>
<path class="st0" d="M1023.03,329.53c-26.24-62.04-63.8-117.75-111.64-165.59C863.56,116.1,807.84,78.54,745.8,52.3
	C681.55,25.12,613.32,11.35,543,11.35c-70.32,0-138.55,13.78-202.8,40.95c-62.04,26.24-117.76,63.8-165.59,111.64
	c-47.84,47.84-85.4,103.55-111.64,165.59c-27.17,64.25-40.95,132.48-40.95,202.8c0,70.32,13.78,138.55,40.95,202.8
	c26.24,62.04,63.8,117.76,111.64,165.59c47.84,47.84,103.55,85.4,165.59,111.64c64.25,27.17,132.48,40.95,202.8,40.95
	s138.55-13.78,202.8-40.95c62.04-26.24,117.76-63.8,165.59-111.64c47.84-47.84,85.4-103.55,111.64-165.59
	c27.17-64.25,40.95-132.48,40.95-202.8C1063.99,462.01,1050.21,393.78,1023.03,329.53z M1007.07,560.37
	c-5.74,96.07-40.66,186.66-100.99,262.03c-5.13-2.54-10.83-4.89-17.39-7.17c-21.19-7.35-51.08-13.67-88.85-18.76
	c-6.15-0.83-12.59-1.64-19.14-2.4c21.16-70.49,33.51-151.27,35.75-233.7H1007.07z M620.54,965.17
	c-16.09,13.65-32.74,23.06-49.5,27.98V838.47c46.58,0.49,91.08,2.14,132.29,4.93c-3.7,8.57-7.61,16.98-11.61,25
	C670.85,910.25,646.9,942.81,620.54,965.17z M760.35,504.3H571.04V288.27c55.28-0.55,107.26-2.7,154.51-6.39
	C746.07,348.33,758.1,425.21,760.35,504.3z M771.5,221.21c-2.43,0.28-4.89,0.55-7.37,0.82c-6.86-17.85-14.34-34.93-22.24-50.77
	C726.66,140.7,709.54,113.9,691,91.58c66.91,22.53,128.86,60.85,179.3,110.89C855.43,207.61,826.34,214.94,771.5,221.21z
	 M571.04,232.19V71.52c16.76,4.92,33.41,14.33,49.5,27.98c26.36,22.36,50.3,54.92,71.18,96.77c4.82,9.66,9.55,20.03,14.06,30.82
	C663.91,229.98,618.58,231.7,571.04,232.19z M571.04,782.39V560.37h189.31c-2.32,81.5-14.98,160.4-36.63,228.26
	C676.93,785.03,625.57,782.93,571.04,782.39z M741.9,893.41c7.04-14.12,13.77-29.26,20-45.02c3.25,0.34,6.46,0.69,9.61,1.05
	c50.78,5.8,79.19,12.52,94.21,17.23C816.19,914.5,755.83,951.26,691,973.09C709.55,950.76,726.66,923.97,741.9,893.41z
	 M1007.07,504.3H816.45c-2.17-80.07-13.94-158.85-34.05-227.91c6.09-0.72,11.96-1.46,17.45-2.2c37.76-5.1,67.65-11.41,88.85-18.76
	c8.05-2.79,14.84-5.71,20.76-8.91C967.69,321.03,1001.44,410.15,1007.07,504.3z M514.96,288.27V504.3H325.65
	c2.25-79.08,14.28-155.97,34.8-222.41C407.7,285.57,459.69,287.72,514.96,288.27z M325.65,560.37h189.31v222.02
	c-54.54,0.55-105.9,2.65-152.68,6.24C340.63,720.77,327.97,641.87,325.65,560.37z M314.49,849.45c3.15-0.36,6.37-0.71,9.61-1.05
	c6.23,15.76,12.96,30.9,20,45.02c15.23,30.55,32.35,57.35,50.89,79.68c-64.83-21.83-125.19-58.59-174.72-106.41
	C235.3,861.97,263.7,855.25,314.49,849.45z M314.49,221.21c-54.83-6.26-83.93-13.6-98.8-18.74
	c50.44-50.05,112.39-88.36,179.3-110.89c-18.54,22.33-35.66,49.12-50.89,79.68c-7.9,15.83-15.38,32.91-22.24,50.77
	C319.39,221.75,316.92,221.48,314.49,221.21z M78.93,504.3c5.63-94.15,39.38-183.26,97.63-257.78c5.92,3.2,12.71,6.12,20.76,8.91
	c21.19,7.35,51.08,13.67,88.85,18.76c5.47,0.74,11.34,1.48,17.45,2.2c-20.11,69.05-31.88,147.84-34.06,227.91H78.93z M305.3,794.07
	c-6.55,0.77-12.99,1.57-19.14,2.4c-37.76,5.09-67.65,11.41-88.85,18.76c-6.57,2.28-12.26,4.62-17.39,7.17
	c-60.34-75.37-95.25-165.96-100.99-262.03h190.62C271.79,642.79,284.15,723.57,305.3,794.07z M514.96,838.47v154.68
	c-16.76-4.92-33.41-14.33-49.5-27.98c-26.36-22.36-50.31-54.92-71.18-96.77c-4-8.01-7.9-16.42-11.61-25
	C423.88,840.61,468.38,838.95,514.96,838.47z M514.96,71.52v160.67c-47.56-0.49-92.88-2.21-134.74-5.09
	c4.52-10.8,9.25-21.16,14.06-30.82c20.87-41.86,44.82-74.42,71.18-96.77C481.55,85.85,498.2,76.44,514.96,71.52z"/>
</svg>
